<?xml version="1.0" encoding="UTF-8" standalone="no"?>
<!-- Created with Inkscape (http://www.inkscape.org/) -->

<svg
   width="76.698883mm"
   height="52.708874mm"
   viewBox="0 0 76.698883 52.708874"
   version="1.1"
   id="svg1"
   xmlns="http://www.w3.org/2000/svg"
   xmlns:svg="http://www.w3.org/2000/svg">
  <defs
     id="defs1" />
  <path
     d="m 36.527641,30.173894 c -1.947157,1.914903 -4.296348,3.421567 -6.919474,4.366142 4.451186,1.997395 7.767386,6.008985 8.903332,10.90011 h -8.984464 v 7.265706 h 16.808276 v -3.632853 c -2.7e-5,-7.78694 -3.883451,-14.694604 -9.80767,-18.899105 z"
     style="fill:#27425a;fill-opacity:1"
     id="path12" />
  <path
     style="fill:#13a7af;fill-opacity:1;stroke-width:1;stroke-dasharray:none"
     d="m 22.760345,0.00987209 c -1.595996,0.004 -3.303555,0.36051 -4.518251,0.73945 -0.519176,0.16197 -1.028899,0.34810001 -1.52539,0.55859001 -0.248596,0.10536 -0.493127,0.21751 -0.734375,0.33399 -1.208534,0.58351 -2.333966,1.3093 -3.357422,2.1543 -0.204509,0.16885 -0.405122,0.34097 -0.601563,0.51953 -0.197464,0.17949 -0.389722,0.36436 -0.576172,0.55078 -3.000205,2.99977 -4.865234,7.1574799 -4.865234,11.7187499 1.1e-5,0.18543 0.0027,0.37642 0.0098,0.57617 l 0.155104,1.92773 7.375253,-0.22842 c 0,0 -0.0065,-0.0279 -0.266687,-1.84956 -0.006,-0.1449 -0.0078,-0.28419 -0.0078,-0.42578 0,-0.35261 0.02578,-0.71633 0.07031,-1.09961 0.05734,-0.4924 0.156589,-0.9747 0.291016,-1.45117 1.103906,-3.91357 4.653355,-6.7695299 8.958984,-6.7695299 4.223349,0 7.727343,2.7454599 8.902344,6.5390599 0.162836,0.52563 0.276696,1.08876 0.345703,1.68164 0.04455,0.38269 0.07227,0.7467 0.07227,1.09961 -8e-6,0.0324 -0.0124,0.16751 -0.02344,0.41992 -0.219603,4.9925 -4.241622,8.90039 -9.296875,8.90039 -2.801824,10e-6 -5.497723,0.50342 -7.990234,1.42188 -8.323082,3.06696 -14.398888,10.77651 -15.103516,19.96289 v 0.004 0.002 c 0.01058,-0.14341 -0.0078,-0.0882 -0.0078,0.16992 l 0.0059,-0.15235 c -0.01997,0.26307 -0.03643,0.52831 -0.04883,0.79297 v 0.006 0.006 C 0.01124,48.417272 0,48.735592 0,49.076052 v 3.63282 H 4.113188 27.02725 v -7.26563 H 9.007719 7.843657 c 1.20035,-5.1276 4.772192,-9.31632 9.564453,-11.19141 l 0.002,-0.002 c 0.07122,-0.0278 0.112968,-0.0445 0.119141,-0.0469 h 0.002 c 0.05763,-0.022 0.145827,-0.0533 0.257812,-0.0937 l 0.0039,-0.002 c 0.284554,-0.10213 0.561721,-0.19445 0.833985,-0.27539 l 0.01563,-0.006 c 0.05602,-0.0164 0.09736,-0.0273 0.08398,-0.0234 0.18608,-0.0539 0.378551,-0.10656 0.578125,-0.15625 h 0.002 0.002 c 0.07291,-0.0183 0.124661,-0.033 0.158204,-0.041 l -0.002,0.002 c 0.162477,-0.0386 0.334205,-0.0765 0.515625,-0.11328 h 0.002 c 0.100797,-0.0205 0.171346,-0.0348 0.214843,-0.043 0.151042,-0.0285 0.316501,-0.0557 0.498047,-0.084 h 0.002 c 0.111561,-0.0175 0.187477,-0.0313 0.228516,-0.0371 0.142162,-0.02 0.304914,-0.039 0.484375,-0.0586 h 0.002 c 0.128761,-0.0142 0.212812,-0.025 0.257813,-0.0293 0.14892,-0.0138 0.321977,-0.0255 0.515625,-0.0371 0.132467,-0.008 0.206785,-0.0146 0.226562,-0.0156 0.252363,-0.0118 0.504735,-0.0176 0.755859,-0.0176 1.551887,0 3.052913,-0.21945 4.47461,-0.61914 6.803344,-1.91267 11.844113,-8.06192 12.097656,-15.38868 v -0.002 c 0.0058,-0.16123 0.01367,-0.35288 0.01367,-0.57617 0,-0.28814 -0.008,-0.57189 -0.02148,-0.84766 v -0.002 -0.002 c -0.04307,-0.84558 -0.150119,-1.67506 -0.316407,-2.48438 -0.05532,-0.26928 -0.116962,-0.5371 -0.185547,-0.80273 -0.136761,-0.5295 -0.300178,-1.04961 -0.486328,-1.55664 v -0.002 c -0.186472,-0.5076 -0.397507,-1.0051899 -0.630859,-1.4882799 -0.350445,-0.72554 -0.752056,-1.41913 -1.199219,-2.08008 -0.596759,-0.88206 -1.275337,-1.70322 -2.02539,-2.45312 -0.186555,-0.18656 -0.378762,-0.37134 -0.576172,-0.55078 -0.196455,-0.17858 -0.39706,-0.35069 -0.601563,-0.51953 -1.023474,-0.84503 -2.150879,-1.57079 -3.359375,-2.1543 -0.24126,-0.11647 -0.485952,-0.22868 -0.734375,-0.33399 -0.496467,-0.21048 -1.004035,-0.39726001 -1.523437,-0.55859001 -1.230758,-0.38229 -2.933859,-0.82118 -5.333591,-0.73967 z"
     id="path27-0" />
  <path
     d="m 43.526732,11.815322 -5.17e-4,7.61142 2.000912,-5.16e-4 h 3.265434 l -5.266346,5.16e-4 v 10e-4 c 0,0.116812 0.0063,0.232047 0.0093,0.348299 0.0146,0.750313 0.0802,1.49873 0.196371,2.240173 0.0315,0.198593 0.0674,0.395453 0.105936,0.591696 0.14316,0.723172 0.334445,1.435967 0.572575,2.133719 0.0811,0.237794 0.167409,0.473027 0.258899,0.705901 0.25785,0.659091 0.55767,1.300995 0.89762,1.921846 0.12573,0.228673 0.256184,0.454421 0.392224,0.676445 0.34857,0.56695 0.73098,1.112423 1.14515,1.633492 0.20116,0.254344 0.408364,0.503617 0.623734,0.745691 0.38313,0.424188 0.787956,0.828311 1.212846,1.210778 0.0608,0.0616 0.122168,0.122781 0.183968,0.183452 0.21258,0.188783 0.430107,0.371974 0.652157,0.549837 0.28696,0.214784 0.580803,0.420199 0.881083,0.615983 0.3055,0.229674 0.618837,0.448733 0.939477,0.656807 0.14647,0.0883 0.295594,0.172475 0.444934,0.256316 0.7328,0.411697 1.495838,0.767205 2.282548,1.0635 0.004,0.002 0.009,0.0042 0.01292,0.0052 0.0676,0.0253 0.135605,0.0494 0.203605,0.0739 0.85356,0.304845 1.730679,0.539368 2.622579,0.70125 0.0419,0.008 0.0836,0.01554 0.125573,0.02274 0.93226,0.162513 1.876734,0.245154 2.823084,0.247014 0.31371,-6e-4 0.627341,-0.01012 0.940511,-0.02842 0.0881,-0.005 0.175283,-0.01375 0.263033,-0.02015 0.22363,-0.0158 0.446927,-0.03608 0.669727,-0.06098 0.11003,-0.0125 0.219272,-0.02716 0.328662,-0.04186 0.19637,-0.0263 0.392251,-0.0561 0.587561,-0.0894 0.12363,-0.0212 0.247293,-0.04276 0.370003,-0.06666 0.1678,-0.0333 0.335078,-0.06909 0.501778,-0.107487 0.14565,-0.0331 0.291939,-0.0643 0.436149,-0.101286 0.0834,-0.0224 0.166587,-0.04545 0.249597,-0.06925 0.48487,-0.132562 0.96142,-0.284791 1.42782,-0.459404 1.32672,-0.496718 2.572716,-1.16116 3.715536,-1.963704 0.59406,-0.417187 1.161613,-0.870259 1.695503,-1.359607 3.31368,-3.037211 5.400191,-7.393837 5.400191,-12.216309 h -7.26571 c 0,5.198068 -4.122381,9.320362 -9.320361,9.320362 -5.19797,0 -9.320361,-4.122294 -9.320361,-9.320362 v -0.001 -7.610904 z m 25.905912,0 5.17e-4,7.610904 h 1.999878 3.265951 1.999879 l -5.2e-4,-7.610904 z"
     style="fill:#e53733;fill-opacity:1"
     id="path4" />
</svg>
