<?xml version="1.0" encoding="UTF-8"?>
<svg width="231px" height="231px" viewBox="0 0 231 231" version="1.1" xmlns="http://www.w3.org/2000/svg" xmlns:xlink="http://www.w3.org/1999/xlink">
    <!-- Generator: Sketch 64 (93537) - https://sketch.com -->
    <title>Logo MDT</title>
    <desc>Created with Sketch.</desc>
    <defs>
        <polygon id="path-1" points="0 0.385015714 230.615803 0.385015714 230.615803 230.52843 0 230.52843"></polygon>
    </defs>
    <g id="Page-1" stroke="none" stroke-width="1" fill="none" fill-rule="evenodd">
        <g id="Logo-MDT">
            <g id="Group-120">
                <g id="Group-3" transform="translate(0.000000, 0.086743)">
                    <mask id="mask-2" fill="white">
                        <use xlink:href="#path-1"></use>
                    </mask>
                    <g id="Clip-2"></g>
                    <path d="M115.308539,0.385015714 C51.7268521,0.385015714 -0.000141717791,52.0059729 -0.000141717791,115.456487 C-0.000141717791,178.907001 51.7268521,230.52843 115.308539,230.52843 C178.888809,230.52843 230.615803,178.907001 230.615803,115.456487 C230.615803,52.0059729 178.888809,0.385015714 115.308539,0.385015714" id="Fill-1" fill="#FFFFFF" mask="url(#mask-2)"></path>
                </g>
                <path d="M102.778372,164.755187 L102.695231,164.750473 L102.474151,164.737744 L102.385341,164.732559 C102.370225,164.731144 102.35558,164.728787 102.340464,164.726901 C102.182685,164.711816 102.028212,164.692487 101.87374,164.672687 L101.725881,164.65383 C101.722574,164.652887 101.614869,164.639687 101.580384,164.634973 L101.350801,164.606687 L101.163734,164.583116 C101.095237,164.572273 101.021544,164.558601 100.94785,164.544459 L100.124942,164.38983 L99.9189791,164.351173 C99.8750466,164.341744 99.8282798,164.329016 99.7838748,164.318173 C99.7045129,164.298844 99.6256233,164.280459 99.5448442,164.260187 L99.532562,164.256887 C99.5316172,164.256416 99.5311448,164.256416 99.5306724,164.256416 L99.4314699,164.230959 C99.4220221,164.22813 99.2803043,164.193244 99.2713288,164.191359 L98.643519,164.032016 C98.540065,164.00373 98.428108,163.96743 98.3152061,163.931601" id="Fill-4" fill="#FFC505"></path>
                <path d="M174.506187,120.377824 L162.177211,127.480367 L162.258935,156.268624 C162.25988,156.589667 162.089346,156.885724 161.811107,157.045539 L136.251831,171.772967 C136.112947,171.852167 135.958002,171.891767 135.80353,171.891767 C135.648113,171.891767 135.492696,171.851696 135.353812,171.771081 C135.076045,171.610324 134.906456,171.313796 134.908346,170.992753 L134.967395,160.771239 L134.971174,160.152724 L134.979205,158.692239 L135.069432,143.096439 L123.390469,149.829381 C123.113174,149.988724 122.772579,149.988724 122.495757,149.829381 C122.218463,149.67051 122.047929,149.37681 122.046984,149.057653 L121.963367,119.748467 C121.962426,119.427424 122.133432,119.131839 122.411671,118.971081 L135.189892,111.608781 C135.189892,111.60831 135.189892,111.60831 135.190837,111.60831 L173.526444,89.5195243 C173.803739,89.35971 174.143861,89.3606529 174.420683,89.5185814 C174.490598,89.5586529 174.553426,89.60721 174.608223,89.6623671 C174.773088,89.8268957 174.869929,90.05271 174.870401,90.2921957 L174.954019,119.60091 C174.95496,119.921481 174.784426,120.21801 174.506187,120.377824 L174.506187,120.377824 Z M180.47345,79.0764386 L116.232303,116.245753 L116.232303,164.357867 L116.232303,190.209124 L180.683193,153.038867 L180.47345,79.0764386 Z" id="Fill-6" fill="#FFC505"></path>
                <path d="M126.601227,137.619947 C126.100491,137.619947 125.600227,137.748176 125.152871,138.005576 L123.809859,138.780133 L123.834423,147.508161 L132.600613,142.45539 L134.180767,141.54459 L128.048638,138.006519 C127.602227,137.749119 127.101963,137.620419 126.601227,137.619947" id="Fill-8" fill="#253062"></path>
                <path d="M165.533041,96.1899557 L165.576501,111.657056 L165.576501,111.657527 C165.577446,112.010627 165.531152,112.356184 165.463599,112.696084 C165.168354,114.169299 164.261833,115.475156 162.933464,116.239813 L154.559833,121.065356 C154.425201,121.143141 154.29671,121.228941 154.174833,121.322756 C153.322636,121.978513 152.81009,123.004341 152.812925,124.095227 L152.882366,148.324299 C152.885201,149.316184 152.599403,150.268941 152.095833,151.089699 C151.642336,151.828899 151.013581,152.462499 150.238385,152.908941 L136.759133,160.675256 L136.708587,169.444299 L160.466158,155.756841 L160.384906,126.968584 C160.383961,126.647541 160.554495,126.351484 160.832262,126.19167 L173.160293,119.088184 L173.083293,91.8405557 L165.533041,96.1899557 Z" id="Fill-10" fill="#253062"></path>
                <path d="M166.679396,76.2706843 L162.358893,78.7763271 L159.391323,80.4975129 C159.39085,80.4979843 159.389906,80.4979843 159.389433,80.4984557 L148.914599,86.5732843 C148.637304,86.7340414 148.291985,86.7345129 148.014691,86.5728129 L141.735175,82.9300843 L141.735175,90.1122986 L141.735175,90.11277 C141.735175,90.17877 141.711556,90.2372271 141.697384,90.2994557 C141.685574,90.3531986 141.686047,90.4111843 141.664789,90.4602129 C141.628887,90.5455414 141.571255,90.61767 141.512206,90.68697 C141.496617,90.7044129 141.489531,90.7279843 141.47347,90.7440129 C141.310967,90.9061843 141.087053,91.0061271 140.839991,91.0061271 L131.603771,91.00707 L129.157721,91.0075414 L134.018169,93.6414129 C134.044151,93.6550843 134.063991,93.6758271 134.088083,93.6918557 C134.110758,93.7074129 134.132488,93.7224986 134.153746,93.7399414 C134.23547,93.8068843 134.307746,93.8832557 134.360654,93.9728271 C134.362071,93.9747129 134.363961,93.9756557 134.364906,93.9775414 C134.368685,93.98367 134.368212,93.9907414 134.371047,93.9973414 C134.418286,94.0821986 134.448047,94.17507 134.465053,94.2726557 C134.469304,94.2985843 134.474028,94.32357 134.47639,94.34997 C134.47828,94.3716557 134.485838,94.3919271 134.48631,94.4136129 C134.487255,94.4961129 134.47639,94.5767271 134.456077,94.6540414 C134.455133,94.65687 134.453243,94.6592271 134.452771,94.6625271 C134.426317,94.7582271 134.380022,94.8454414 134.32428,94.92747 C134.309163,94.9496271 134.293574,94.9698986 134.276096,94.9906414 C134.209961,95.0712557 134.133433,95.14527 134.039899,95.1994843 L126.573734,99.5300271 C126.572789,99.5304986 126.572317,99.5319129 126.570899,99.5323843 L115.897188,105.722241 C115.758777,105.802856 115.60336,105.842927 115.447942,105.842927 C115.29347,105.842927 115.138525,105.803327 115.000587,105.723656 L71.1705804,80.4696986 C71.1696356,80.4696986 71.1691632,80.4692271 71.1686908,80.4692271 L63.8806172,76.2697414 C63.6037951,76.1103986 63.4327872,75.8157557 63.4327872,75.49707 C63.4327872,75.2580557 63.5282123,75.0322414 63.6926049,74.8662986 C63.7474025,74.8111414 63.8097583,74.7625843 63.8787276,74.7225129 L71.398746,70.3608557 L81.8329546,64.3095986 C81.9694761,64.2303986 82.1248933,64.1889129 82.2831448,64.1889129 L82.2836172,64.1889129 L96.4605926,64.1889129 L96.4605926,56.34717 C96.4605926,56.1081557 96.556016,55.8828129 96.7204086,55.7178129 C96.7752061,55.6626557 96.837562,55.61457 96.9065313,55.5744986 L114.660936,45.2718986 C114.696366,45.2511557 114.736047,45.2403129 114.773366,45.2252271 C114.808795,45.2106129 114.842335,45.1908129 114.878709,45.1813843 C114.912249,45.1724271 114.946261,45.1728986 114.980274,45.1677129 C115.022789,45.1615843 115.065304,45.1507373 115.108764,45.1507373 C115.264182,45.1507373 115.419599,45.1903414 115.558482,45.2704843 L166.677507,74.7234557 C166.954329,74.8827986 167.125339,75.1774414 167.125339,75.4956557 C167.125339,75.4956557 167.125339,75.4956557 167.125339,75.4961271 C167.125339,75.4961271 167.125339,75.4961271 167.125339,75.4961271 C167.125339,75.8152843 166.956691,76.1103986 166.679396,76.2706843 L166.679396,76.2706843 Z M115.066721,40.3610271 L50.9800466,77.5279843 L95.6079239,103.240641 C95.6079239,103.240641 95.6083963,103.240641 95.6088687,103.240641 L102.805771,107.38827 L115.336458,114.696827 L179.576188,77.5284557 L115.066721,40.3610271 Z" id="Fill-12" fill="#253062"></path>
                <path d="M72.8054368,77.9717871 L81.8328601,72.73563 C81.9693816,72.65643 82.1252712,72.6144729 82.2830503,72.6144729 L92.9662098,72.6144729 C94.1703387,72.6144729 95.2346393,72.0035014 95.8633939,71.07573 C96.2403632,70.5189729 96.4604982,69.84813 96.4604982,69.1273157 L96.4604982,65.9762871 L82.5249153,65.9762871 L72.9882528,71.5070871 L66.1158847,75.4930157 L71.6154798,78.6619586 L72.8054368,77.9717871 Z" id="Fill-14" fill="#4EBED7"></path>
                <path d="M115.112024,47.0775643 L98.2523307,56.8611214 L98.2523307,63.21975 L112.461901,54.9735214 C112.845956,54.7505357 113.252687,54.5850643 113.669809,54.4667357 C113.696736,54.4591929 113.722245,54.4469357 113.749171,54.4398643 C113.896558,54.4007357 114.046779,54.3776357 114.196527,54.3512357 C114.273527,54.3375643 114.34911,54.3158786 114.426582,54.3059786 C114.555073,54.2890071 114.684509,54.2875929 114.813472,54.28005 C114.913619,54.2743929 115.013766,54.2607214 115.113913,54.2607214 C115.115803,54.2607214 115.117693,54.26025 115.119582,54.26025 C115.270748,54.26025 115.420969,54.27675 115.572134,54.2894786 C115.647717,54.2960786 115.7233,54.2946643 115.79841,54.3040929 C115.960441,54.3248357 116.12011,54.3620786 116.279779,54.3974357 C116.344024,54.41205 116.410159,54.4191214 116.474404,54.4356214 C116.660527,54.4851214 116.843343,54.5501786 117.024742,54.6204214 C117.059699,54.6336214 117.096545,54.6416357 117.13103,54.6557786 C117.34219,54.74205 117.54768,54.8434071 117.747975,54.9579643 C117.752226,54.9603214 117.757423,54.9622071 117.761202,54.9645643 L117.761202,54.9645643 C117.761674,54.9645643 117.761674,54.9650357 117.762147,54.9650357 L122.024545,57.4207071 L158.94014,78.6910929 L161.328085,77.3065071 L164.44257,75.4999929 L115.112024,47.0775643 Z" id="Fill-16" fill="#4EBED7"></path>
                <polygon id="Fill-18" fill="#4EBED7" points="126.527392 97.4893543 131.762447 94.4533543 126.527392 91.6162971"></polygon>
                <path d="M96.5265387,169.834547 L96.5265387,169.835019 L95.8590479,169.893004 C95.7735448,169.90149 95.6875693,169.909033 95.6001767,169.912804 C95.4589313,169.920347 95.3120172,169.92129 95.1655755,169.92129 L94.9889006,169.922704 L94.8821399,169.922704 L94.4276982,169.928833 C94.3275509,169.926004 94.2231521,169.918933 94.1192258,169.912333 C94.0559252,169.908561 93.9954589,169.907147 93.9316859,169.903376 L93.2353791,169.86189 C93.0813791,169.847276 92.925962,169.827476 92.7705448,169.807676 L92.6883485,169.796833 L92.4266429,169.763833 L92.4266429,169.764304 L92.4124712,169.761947 L92.0000724,169.709147 C91.9457472,169.701604 91.8715816,169.687461 91.7969436,169.671904 L91.346281,169.588461 L91.3325816,169.586104 C91.3269129,169.585161 91.2414098,169.569133 91.2357411,169.56819 L90.7694896,169.480976 C90.6702871,169.458819 90.5715571,169.432419 90.472827,169.407433 C90.435508,169.397533 90.3939374,169.388576 90.3570908,169.378676 L90.1638822,169.33059 L90.0316123,169.296647 L90.0316123,169.297119 L90.0065755,169.290519 L89.4954466,169.161819 C89.4094712,169.138719 89.315465,169.108076 89.2224037,169.078376 L89.2030356,169.07319 C89.1997288,169.072247 89.1704405,169.062347 89.1416245,169.053861 C89.1411521,169.05339 89.1406798,169.05339 89.1402074,169.05339 L88.9375509,168.990219 L88.2228209,168.769119 C88.0357534,168.705004 87.8586061,168.63759 87.6814589,168.570176 L87.6276061,168.549904 C87.6200479,168.547547 87.6124896,168.544719 87.6049313,168.54189 L87.2978761,168.427804 C87.1722196,168.382076 87.0460908,168.335404 86.9185448,168.285433 C86.9105141,168.282133 86.9029558,168.278833 86.8953975,168.275533 C86.888784,168.272704 86.8812258,168.270347 86.8746123,168.267519 C86.7073853,168.201047 86.5066184,168.113361 86.3058515,168.025204 L86.2869558,168.016247 C86.2694773,168.008233 86.251054,168.00069 86.2331031,167.993147 L85.9732871,167.880004 C85.9718699,167.880004 85.8825877,167.841347 85.8811706,167.841347 C85.8755018,167.83899 85.7026061,167.763561 85.6969374,167.762147 C85.6969374,167.762147 85.6931583,167.760733 85.6926859,167.760261 L85.6922135,167.760261 L85.6893791,167.758847 C85.6752074,167.752719 85.5788393,167.710761 85.5783669,167.710761 C85.3190233,167.590547 85.056373,167.458547 84.7937227,167.327961 L84.6775141,167.27139 C84.6760969,167.270919 84.6751521,167.269504 84.673735,167.269033 L84.5098147,167.188419 C84.4923362,167.180404 84.4748577,167.17239 84.4578515,167.163433 L84.2438577,167.058304 C84.1734712,167.022004 84.1030847,166.980047 84.0326982,166.943276 C84.0317534,166.942804 84.0308086,166.942333 84.0298638,166.941861 L83.3193853,166.556704 C83.3179681,166.556233 83.3170233,166.554819 83.3160785,166.554347 C83.3156061,166.554347 83.3156061,166.554347 83.3151337,166.553876 C83.3042687,166.547747 83.2929313,166.541619 83.2820663,166.53549 C83.1375141,166.457233 83.0184712,166.391233 82.9131276,166.33089 C82.9046245,166.326647 82.8961215,166.322404 82.8876184,166.317219 L57.3264528,151.590261 C57.0486859,151.429976 56.8776798,151.133919 56.8786206,150.812876 L56.8786206,150.811933 L56.8795693,150.481461 L57.0444344,92.1978043 C57.0453791,91.9583186 57.1417472,91.7329757 57.3070847,91.5679757 C57.3618822,91.5128186 57.4247104,91.4647329 57.4941521,91.4246614 C57.7705018,91.2662614 58.1115693,91.2653186 58.3883914,91.4256043 L66.3675755,96.0239186 L67.5065141,96.6801471 C67.5069865,96.6806186 67.5074589,96.6806186 67.5074589,96.6806186 L83.9476675,106.15209 C90.7864957,110.09229 97.233238,116.823347 102.099827,125.103519 C103.043195,126.708733 103.905784,128.337519 104.685704,129.976676 C107.224342,135.310419 108.881968,140.763904 109.540011,145.944433 C109.744085,147.549647 109.854152,149.129876 109.862655,150.670976 L109.865017,150.79779 L109.868324,150.960904 C109.868324,151.007576 109.865962,151.051419 109.865017,151.097619 C109.863128,151.189547 109.86171,151.281476 109.859348,151.37529 L109.85179,151.622319 C109.847539,151.809004 109.837146,151.986733 109.831005,152.168704 C109.822974,152.390747 109.81825,152.615619 109.805496,152.833419 C109.781404,153.228476 109.756367,153.620704 109.71952,154.001147 C109.700625,154.196319 109.673226,154.383004 109.649606,154.57299 C109.625987,154.762976 109.606618,154.95579 109.580164,155.14389 C109.526784,155.526219 109.464901,155.899119 109.397348,156.268719 C109.329796,156.63879 109.254213,157.003204 109.172962,157.360076 C109.085097,157.738633 108.993453,158.103047 108.892361,158.462747 C108.789852,158.824804 108.681674,159.181204 108.565937,159.527233 C108.435557,159.90909 108.299508,160.278219 108.154483,160.637447 C108.077483,160.82649 107.99198,161.003747 107.911674,161.18619 C107.830894,161.369104 107.754839,161.556261 107.669809,161.733519 C107.626348,161.823561 107.576747,161.905119 107.53187,161.992804 C107.384483,162.284619 107.235207,162.576433 107.075539,162.854104 C106.856821,163.23219 106.622514,163.587647 106.382066,163.934619 C106.357502,163.970919 106.336244,164.010519 106.310735,164.046347 C106.262079,164.117061 106.204919,164.193904 106.14776,164.270276 L106.077373,164.36409 C106.077373,164.364561 106.076901,164.364561 106.076901,164.365033 C106.076428,164.365033 106.076428,164.365504 106.075956,164.365976 C105.865741,164.651661 105.647496,164.926033 105.421692,165.190504 C105.394293,165.22209 105.370674,165.257919 105.343275,165.289033 C105.286588,165.353619 105.22376,165.413961 105.165655,165.477604 C104.775459,165.907076 104.359281,166.320519 103.913815,166.700961 C103.420164,167.122419 102.906674,167.486361 102.387987,167.816361 C102.234931,167.913476 102.084238,168.020961 101.929766,168.110533 C101.927404,168.111947 101.924569,168.113361 101.922207,168.114776 C101.921735,168.114776 101.921263,168.115247 101.921263,168.115247 C101.92079,168.115719 101.919845,168.115719 101.919373,168.115719 L101.919845,168.115719 C101.797496,168.186904 101.671367,168.25149 101.545238,168.315604 L101.337858,168.423561 C101.335496,168.424976 101.333134,168.425919 101.330772,168.427333 L101.314238,168.435819 C101.200391,168.496633 101.0856,168.556976 100.968447,168.613076 C100.938686,168.626747 100.914594,168.636176 100.887195,168.647961 C100.845152,168.666347 100.804526,168.685204 100.760594,168.703119 C100.752091,168.706419 100.594784,168.77289 100.585809,168.776661 L100.334968,168.882733 C100.330717,168.884147 100.326937,168.885561 100.323158,168.887447 L100.314655,168.891219 C100.274502,168.90819 100.233876,168.923747 100.193723,168.940719 C100.117667,168.972776 100.042557,169.005776 99.9646123,169.035476 C99.9617779,169.036419 99.9589436,169.037361 99.9561092,169.038304 C99.8313975,169.084504 99.7014896,169.126461 99.5711092,169.16889 L98.9990417,169.352276 L98.9305448,169.373961 L98.9296,169.373961 L98.9248761,169.375847 C98.7637902,169.420633 98.6315202,169.451747 98.4987779,169.482861 L98.2120356,169.55169 C98.0915755,169.582333 97.9711153,169.612504 97.8482933,169.636076 C97.8312871,169.639847 97.8152258,169.641733 97.7977472,169.645033 C97.6801215,169.667661 97.5629681,169.687461 97.4462871,169.705376 L97.2766982,169.731776 C97.083962,169.763361 96.9616123,169.784104 96.837373,169.801076 L96.7055755,169.816633 M94.7366429,104.798619 C94.7290847,104.794376 94.7205816,104.793433 94.7130233,104.788719 L50.0846736,79.07559 L49.8749313,153.043204 L114.441085,190.209219 L114.441085,164.357961 L114.441085,116.245847 L94.7503423,104.810404 C94.745146,104.807104 94.7423117,104.801919 94.7366429,104.798619" id="Fill-20" fill="#4EBED7"></path>
                <path d="M1.79084049,115.543136 C1.79084049,53.0779071 52.7147669,2.25885 115.308681,2.25885 C177.90165,2.25885 228.824632,53.0779071 228.824632,115.543136 C228.824632,178.008364 177.90165,228.827893 115.308681,228.827893 C52.7147669,228.827893 1.79084049,178.008364 1.79084049,115.543136 M115.308681,0.471664286 C51.7265215,0.471664286 0,52.0926214 0,115.543136 C0,178.99365 51.7265215,230.615079 115.308681,230.615079 C178.888951,230.615079 230.615945,178.99365 230.615945,115.543136 C230.615945,52.0926214 178.888951,0.471664286 115.308681,0.471664286" id="Fill-22" fill="#000000"></path>
                <polygon id="Fill-24" fill="#000000" points="24.8811092 103.259074 16.5972319 98.2869171 26.111692 96.2263029 26.778238 92.41386 13.6301337 90.1231886 13.1440417 92.8980171 21.7496184 94.3981029 12.5450479 96.3220029 12.1312319 98.6914029 20.2478822 103.634331 11.5317656 102.114917 11.0296123 104.98356 24.1777166 107.275174"></polygon>
                <path d="M16.215208,118.345684 L16.175527,115.114513 L20.8078092,116.692384 L16.215208,118.345684 Z M24.1008583,114.980627 L10.6934104,110.125856 L10.7312018,113.244827 L13.4536006,114.170241 L13.5159564,119.31777 L10.8162325,120.308241 L10.8563859,123.539413 L24.1424288,118.419227 L24.1008583,114.980627 Z" id="Fill-26" fill="#000000"></path>
                <path d="M17.9569196,134.270683 L17.3976067,131.088069 L22.2230975,131.90364 L17.9569196,134.270683 Z M25.197754,129.684154 L11.1828092,127.045097 L11.722754,130.116454 L14.5580546,130.592597 L15.4489871,135.663754 L12.9448337,137.07474 L13.5041466,140.257354 L25.7920239,133.071369 L25.197754,129.684154 Z" id="Fill-28" fill="#000000"></path>
                <polygon id="Fill-30" fill="#000000" points="27.5212644 149.716427 30.2276018 148.846641 26.792835 138.20697 24.0864975 139.076756 25.3454239 142.974056 15.346289 146.190141 16.2580067 149.01447 26.2576141 145.799799"></polygon>
                <path d="M28.8567656,161.982763 C29.0306061,161.536791 29.1288638,161.043206 29.1529558,160.502949 C29.1761031,159.963634 29.0995755,159.380477 28.921011,158.756306 L28.4467288,157.003063 C28.3224896,156.548606 28.3149313,156.179949 28.421692,155.898034 C28.5293975,155.616591 28.7292196,155.404449 29.0230479,155.26302 C29.3508883,155.103677 29.7202994,155.109806 30.1303362,155.279991 C30.5399006,155.45112 30.8663239,155.783477 31.1077166,156.27942 C31.2820294,156.640534 31.376508,156.971006 31.3902074,157.270363 C31.402962,157.570191 31.3708393,157.832777 31.2919497,158.059534 C31.2130601,158.285349 31.103465,158.476749 30.9645816,158.634206 C30.8247534,158.792134 30.6934282,158.915177 30.5682442,159.003806 L32.4129374,161.076206 C32.7294405,160.839549 33.0336613,160.538777 33.3251276,160.17672 C33.6147043,159.812777 33.8320049,159.383777 33.9756123,158.890191 C34.119692,158.396134 34.1640969,157.834663 34.1097718,157.207191 C34.0563914,156.579249 33.8485387,155.892849 33.4871583,155.149406 C33.2075018,154.574734 32.8461215,154.074549 32.4020724,153.648849 C31.9580233,153.223149 31.4719313,152.895034 30.9414344,152.664977 C30.4109374,152.433034 29.8520969,152.318006 29.2658577,152.31609 C28.679146,152.313763 28.1037718,152.450477 27.539735,152.723906 C26.6469129,153.155263 26.0242994,153.811963 25.6704773,154.691649 C25.3171276,155.572749 25.2939804,156.572177 25.5996184,157.690877 L26.0923239,159.478534 C26.2052258,159.910834 26.212784,160.293163 26.1154712,160.62552 C26.0186307,160.957877 25.8183362,161.197363 25.5131706,161.344449 C25.1404528,161.525006 24.7663178,161.522177 24.3893485,161.335963 C24.0128515,161.148806 23.6958761,160.791463 23.4384221,160.261106 C23.2414344,159.854734 23.1256982,159.472877 23.0907411,159.11412 C23.055784,158.75442 23.0817656,158.429134 23.1705755,158.136377 C23.2579681,157.842677 23.4025202,157.581506 23.6047043,157.35192 C23.8068883,157.12092 24.0378883,156.929991 24.2981767,156.775834 L22.5148945,154.611506 C22.1067472,154.864191 21.7269436,155.200791 21.3735939,155.62272 C21.0207166,156.044177 20.7538147,156.542477 20.5719436,157.116677 C20.3914896,157.690877 20.3244098,158.335791 20.3721215,159.050949 C20.418416,159.765634 20.6451644,160.540191 21.0500049,161.375091 C21.3957963,162.084591 21.8124466,162.662091 22.2999558,163.108063 C22.7888822,163.554034 23.302373,163.87932 23.841373,164.084391 C24.3817902,164.289934 24.9226798,164.379977 25.4678209,164.352634 C26.0124896,164.325763 26.5226736,164.197534 26.9964834,163.967949 C27.4258883,163.76052 27.8000233,163.488977 28.118416,163.15332 C28.4363362,162.819077 28.6829252,162.428263 28.8567656,161.982763" id="Fill-32" fill="#000000"></path>
                <path d="M35.7336687,175.043739 C35.5012515,175.128124 35.2225399,175.187524 34.896589,175.223353 C34.5692209,175.257767 34.2210675,175.23561 33.8530736,175.154996 C33.4850798,175.074381 33.1128344,174.913153 32.7377546,174.668481 C32.3622025,174.425224 32.0102699,174.066939 31.6819571,173.592681 C31.3966319,173.181596 31.1953926,172.73751 31.0787117,172.261839 C30.9620307,171.785696 30.9417178,171.304839 31.017773,170.819267 C31.092411,170.333696 31.2700307,169.863681 31.5511043,169.410639 C31.8317055,168.957124 32.2308773,168.552639 32.7467301,168.196239 C33.3244663,167.796939 33.8889755,167.543781 34.4407301,167.436767 C34.9924847,167.329753 35.5092822,167.331639 35.9897055,167.44101 C36.4701288,167.551324 36.9061472,167.745553 37.2977607,168.022281 C37.6889018,168.300424 38.0134356,168.62571 38.2699448,168.995781 C38.605816,169.479467 38.8207546,169.937224 38.9128712,170.368581 C39.0059325,170.799939 39.0215215,171.19641 38.959638,171.558467 C38.898227,171.920524 38.7895767,172.243453 38.6351043,172.525367 C38.4796871,172.808224 38.3233252,173.034039 38.1660184,173.204224 L40.4901902,175.003196 C40.8175583,174.639724 41.1189448,174.191396 41.3910429,173.660096 C41.6636135,173.128796 41.8407607,172.531024 41.9210675,171.86631 C42.0018466,171.201124 41.9531902,170.487853 41.7765153,169.726967 C41.5993681,168.96561 41.2257055,168.173139 40.653638,167.350024 C40.1250307,166.587253 39.4839939,165.95931 38.7300552,165.468081 C37.976589,164.974967 37.1711595,164.644024 36.3137669,164.475724 C35.4559018,164.30601 34.5678037,164.313553 33.6499448,164.498824 C32.7330307,164.682681 31.8463497,165.071139 30.9894294,165.663253 C30.1329816,166.254424 29.4574601,166.941296 28.9633374,167.726224 C28.4687423,168.509267 28.1503497,169.326253 28.0081595,170.178596 C27.8664417,171.030467 27.8985644,171.89601 28.1035828,172.774753 C28.3086012,173.653967 28.6865153,174.489339 29.2373252,175.283224 C29.8216748,176.12661 30.4584601,176.769167 31.1448466,177.208539 C31.8317055,177.648381 32.5138405,177.943024 33.189362,178.09341 C33.8658282,178.242853 34.5059202,178.279624 35.1101104,178.204667 C35.7138282,178.130181 36.2396012,178.007139 36.6864847,177.836481 L35.7336687,175.043739 Z" id="Fill-34" fill="#000000"></path>
                <polygon id="Fill-36" fill="#000000" points="51.823173 180.941216 48.0629276 184.574516 44.3574798 180.75453 48.1172528 177.121701 46.048173 174.988487 36.4590748 184.253473 38.5272098 186.386687 42.3417804 182.700587 46.0472282 186.521044 42.2331301 190.206673 44.3154368 192.353087 53.9050074 183.08763"></polygon>
                <path d="M57.8487301,196.171941 L55.2415951,194.255584 L59.2961411,191.518941 L57.8487301,196.171941 Z M47.9492699,195.613299 L50.4642883,197.463656 L52.846092,195.853727 L56.9988957,198.907641 L56.1646503,201.653713 L58.7703681,203.57007 L62.6860307,189.90477 L59.9130859,187.86537 L47.9492699,195.613299 Z" id="Fill-38" fill="#000000"></path>
                <path d="M72.8515896,200.943741 C72.6059454,201.409041 72.2573196,201.693313 71.8066571,201.796084 C71.3550497,201.897441 70.8798227,201.81777 70.3795589,201.555656 L68.8466448,200.750927 L70.4348288,197.741799 L71.9667982,198.546527 C72.467062,198.809584 72.8024607,199.155141 72.9729945,199.584613 C73.1430558,200.014084 73.1024301,200.466656 72.8515896,200.943741 M75.7979025,199.008999 C75.6113074,198.487127 75.3207859,198.002027 74.926338,197.55417 C74.5323626,197.105841 74.0349331,196.723984 73.4354669,196.40907 L68.9874178,194.073141 L62.7688411,205.858384 L65.4014853,207.241556 L67.6373196,203.00247 L69.4527245,203.956641 C70.0531356,204.272027 70.6474055,204.46767 71.2393135,204.544041 C71.8298043,204.620884 72.3933687,204.588356 72.9295344,204.445513 C73.4657,204.30267 73.954154,204.049513 74.3930067,203.686041 C74.8332767,203.32257 75.199381,202.86387 75.491792,202.30947 C75.7785344,201.766856 75.9476509,201.211041 75.9991417,200.64297 C76.0496877,200.076313 75.9821356,199.531341 75.7979025,199.008999" id="Fill-40" fill="#000000"></path>
                <path d="M84.943235,205.92231 C84.7637258,206.417781 84.4576153,206.746367 84.0253761,206.910424 C83.592192,207.072596 83.1103515,207.059396 82.5789098,206.868467 L80.9501,206.281067 L82.1079344,203.083367 L83.7367442,203.669824 C84.2681859,203.861696 84.6479896,204.158224 84.8761552,204.560353 C85.1047933,204.961539 85.1260509,205.416467 84.943235,205.92231 M86.531419,202.280053 C86.0788669,201.890653 85.5337258,201.580453 84.8964681,201.35181 L80.169235,199.646181 L75.6337933,212.174867 L78.4313025,213.182781 L80.0629466,208.677339 L81.9921982,209.373167 C82.6304006,209.603224 83.2464006,209.715424 83.8416153,209.71071 C84.4373025,209.705524 84.9909466,209.59521 85.5030202,209.380239 C86.0146215,209.164796 86.4624497,208.847996 86.8483945,208.42701 C87.2338669,208.006496 87.5338362,207.502539 87.7468853,206.913253 C87.9566276,206.336224 88.0468546,205.762496 88.0199282,205.194424 C87.9915847,204.624467 87.8493945,204.09411 87.5943025,203.60241 C87.338738,203.111181 86.9839712,202.670396 86.531419,202.280053" id="Fill-42" fill="#000000"></path>
                <polygon id="Fill-44" fill="#000000" points="89.1770067 216.636703 97.4575773 218.42106 98.0542092 215.666031 92.6807429 214.508674 93.2206877 212.011517 98.079246 213.057617 98.6310006 210.505303 93.7733871 209.45826 94.3095528 206.97996 99.6645957 208.133074 100.256504 205.396431 91.993884 203.615846"></polygon>
                <polygon id="Fill-46" fill="#000000" points="106.647267 206.122573 103.683948 205.872716 102.559654 219.146259 111.263961 219.87933 111.503936 217.052644 105.763421 216.568487"></polygon>
                <polygon id="Fill-48" fill="#000000" points="115.197858 206.535073 115.406655 219.853401 118.417686 219.80673 118.209833 206.488401"></polygon>
                <path d="M129.846139,205.445837 L126.891323,205.789037 L127.944287,214.80228 C128.002391,215.300109 127.912164,215.723923 127.675023,216.071837 C127.437882,216.421637 127.076029,216.624823 126.589937,216.680923 C126.152974,216.731837 125.760888,216.638966 125.410845,216.401366 C125.061274,216.166123 124.851532,215.748437 124.781145,215.151137 L124.6399,213.938623 L121.89152,214.74948 L121.994501,215.626337 C122.071029,216.286337 122.250066,216.870437 122.529722,217.37958 C122.810323,217.889666 123.16698,218.315366 123.598274,218.655737 C124.029569,218.99658 124.528888,219.237951 125.094814,219.380794 C125.661685,219.521751 126.274379,219.555223 126.934783,219.47838 C127.596133,219.401066 128.186624,219.212966 128.707673,218.912194 C129.22825,218.612837 129.665213,218.24088 130.01809,217.79538 C130.370495,217.351766 130.623698,216.845923 130.778642,216.279266 C130.93406,215.712137 130.977047,215.130866 130.906661,214.533566 L129.846139,205.445837 Z" id="Fill-50" fill="#000000"></path>
                <polygon id="Fill-52" fill="#000000" points="144.907812 201.840587 141.122057 202.839073 137.84129 209.494701 136.408523 204.08223 133.532125 204.839816 136.94091 217.718301 139.816836 216.960244 138.902756 213.509387 139.931628 211.508644 144.74956 215.659101 148.33502 214.714359 141.360143 208.74183"></polygon>
                <polygon id="Fill-54" fill="#000000" points="154.213144 209.31207 153.207892 206.96247 157.78018 205.015941 156.752254 202.614013 152.18091 204.560541 151.18369 202.227441 156.222702 200.08197 155.122499 197.507027 147.347389 200.817399 152.585279 213.069827 160.377395 209.751441 159.269162 207.159527"></polygon>
                <path d="M174.532924,196.923729 C174.434666,197.374414 174.244764,197.790214 173.960856,198.172071 C173.676476,198.553457 173.323599,198.891943 172.902225,199.185643 L171.48174,200.175643 L167.048335,193.848129 L168.467875,192.857186 C168.889249,192.563486 169.329047,192.348514 169.784906,192.213686 C170.242654,192.077914 170.700875,192.044914 171.162402,192.1128 C171.622985,192.180214 172.073648,192.358886 172.513918,192.647871 C172.953243,192.9378 173.36328,193.3536 173.744973,193.897157 C174.127139,194.441186 174.377507,194.969186 174.497967,195.481157 C174.619372,195.993129 174.631182,196.473986 174.532924,196.923729 M176.291169,192.121286 C175.701623,191.279786 175.037912,190.610829 174.300979,190.117714 C173.563574,189.622714 172.788378,189.308271 171.974445,189.172971 C171.159096,189.038614 170.327212,189.080571 169.478323,189.298371 C168.628016,189.517586 167.791409,189.914057 166.968028,190.488257 L163.004182,193.2546 L170.652218,204.171943 L174.601893,201.414557 C175.424801,200.8413 176.087096,200.191671 176.590194,199.466614 C177.092347,198.741086 177.419715,197.974071 177.572771,197.164157 C177.725826,196.354714 177.697482,195.5217 177.48774,194.667 C177.279887,193.811829 176.880715,192.963257 176.291169,192.121286" id="Fill-56" fill="#000000"></path>
                <polygon id="Fill-58" fill="#000000" points="174.679649 184.557921 183.5526 194.508364 185.802606 192.509979 176.929183 182.559536"></polygon>
                <polygon id="Fill-60" fill="#000000" points="189.481128 184.913803 187.594864 183.186017 190.955465 179.532446 189.028103 177.766474 185.667502 181.420046 183.794465 179.704046 187.49944 175.677103 185.433667 173.784317 179.716772 179.998689 189.550097 189.006274 195.277858 182.778231 193.198385 180.872246"></polygon>
                <polygon id="Fill-62" fill="#000000" points="192.494001 163.979876 199.222761 168.50559 189.695547 168.124204 187.676068 171.11589 198.7447 178.559747 200.396185 176.113504 193.121338 171.221019 203.468154 171.563747 205.22451 168.961461 194.15635 161.517604"></polygon>
                <path d="M209.750173,154.527403 C209.385958,154.122446 208.966474,153.80706 208.489357,153.583131 C208.057118,153.380417 207.610234,153.262089 207.149652,153.225317 C206.688596,153.189489 206.228958,153.243703 205.772155,153.389374 C205.315823,153.535517 204.86894,153.769346 204.433866,154.089917 C203.99832,154.412846 203.59348,154.838546 203.218872,155.368431 L202.15221,156.840231 C201.874915,157.223031 201.593369,157.460631 201.306155,157.554446 C201.019412,157.648731 200.727946,157.626103 200.432701,157.487503 C200.103443,157.333346 199.876222,157.043889 199.751038,156.618189 C199.624437,156.192489 199.679234,155.730489 199.914013,155.230774 C200.08502,154.868717 200.282007,154.587274 200.507811,154.388803 C200.73267,154.18986 200.958474,154.050317 201.184277,153.96876 C201.410081,153.887674 201.627854,153.851374 201.838541,153.860331 C202.048756,153.869289 202.227793,153.894274 202.374707,153.934817 L202.829148,151.201003 C202.445566,151.10436 202.01994,151.057217 201.553688,151.059926 C201.088382,151.063346 200.618351,151.164231 200.142179,151.363174 C199.668369,151.56306 199.203063,151.882217 198.747676,152.317817 C198.291817,152.755303 197.888866,153.347417 197.536461,154.096046 C197.263891,154.674489 197.102333,155.269903 197.049425,155.881346 C196.997934,156.49326 197.04848,157.077831 197.202952,157.634117 C197.35648,158.190874 197.617713,158.69766 197.986179,159.153531 C198.353228,159.609403 198.821369,159.970517 199.38824,160.236874 C200.287204,160.656446 201.189474,160.72716 202.097885,160.447603 C203.005823,160.167103 203.799443,159.556603 204.477326,158.61516 L205.560523,157.109889 C205.82648,156.750189 206.119836,156.503631 206.439645,156.368803 C206.759455,156.235389 207.072179,156.240103 207.378762,156.38436 C207.753842,156.560203 207.987204,156.85296 208.078375,157.26216 C208.170492,157.671831 208.090658,158.14326 207.839345,158.675503 C207.647081,159.083289 207.422694,159.414703 207.16524,159.666917 C206.907787,159.919603 206.636633,160.103931 206.353198,160.220374 C206.069762,160.336817 205.775461,160.389146 205.468406,160.376417 C205.162296,160.365103 204.867995,160.305703 204.584087,160.201046 L204.020995,162.946174 C204.473547,163.10316 204.975228,163.186603 205.525566,163.19556 C206.076375,163.204046 206.631909,163.098446 207.193584,162.876403 C207.754787,162.655303 208.299928,162.302674 208.826173,161.81616 C209.353836,161.329646 209.814418,160.665874 210.209811,159.827674 C210.545682,159.11346 210.733222,158.426117 210.772903,157.76706 C210.812584,157.108003 210.743142,156.504574 210.564106,155.956774 C210.385541,155.409446 210.114388,154.93236 209.750173,154.527403" id="Fill-64" fill="#000000"></path>
                <polygon id="Fill-66" fill="#000000" points="206.710515 137.973519 203.994258 137.137204 200.688926 147.817419 203.405656 148.653733 204.615926 144.740404 214.652853 147.833919 215.531503 144.998276 205.494104 141.905233"></polygon>
                <polygon id="Fill-68" fill="#000000" points="208.988062 124.509707 206.179215 124.074107 204.459706 135.120621 207.267608 135.55575 207.898252 131.508536 218.278608 133.117993 218.735884 130.184293 208.355056 128.575307"></polygon>
                <polygon id="Fill-70" fill="#000000" points="206.231698 121.383759 219.56498 122.014059 219.706226 119.012001 206.373416 118.380759"></polygon>
                <path d="M216.957373,106.48242 C216.400894,106.292434 215.822213,106.213706 215.21944,106.24482 L206.064471,106.728506 L206.221778,109.693791 L215.302109,109.212934 C215.80379,109.187006 216.220913,109.303449 216.554894,109.56132 C216.889348,109.819191 217.068858,110.192091 217.095312,110.680963 C217.118931,111.117977 217.001306,111.503606 216.741962,111.837377 C216.483563,112.170677 216.053213,112.35312 215.451385,112.385177 L214.229306,112.449763 L214.86798,115.237791 L215.750882,115.191591 C216.415539,115.156234 217.011698,115.014806 217.537944,114.767777 C218.066079,114.520277 218.513434,114.192634 218.880483,113.783906 C219.24895,113.375649 219.521993,112.893849 219.700557,112.339449 C219.878649,111.784106 219.949036,111.175491 219.914551,110.512191 C219.879594,109.850306 219.727483,109.249234 219.460582,108.711334 C219.193207,108.173906 218.848833,107.715677 218.426042,107.336649 C218.003723,106.957149 217.514324,106.672406 216.957373,106.48242" id="Fill-72" fill="#000000"></path>
                <path d="M207.466155,96.3800829 C207.525676,95.9081829 207.678731,95.4758829 207.926737,95.08224 C208.174271,94.6876543 208.519118,94.3482257 208.962222,94.0615971 C209.404382,93.7763829 209.95094,93.5689543 210.602842,93.43884 C211.255216,93.3091971 211.84051,93.2917543 212.358725,93.3874543 C212.876467,93.4826829 213.322406,93.6651257 213.696541,93.9352543 C214.070204,94.2058543 214.375369,94.5471686 214.611566,94.9610829 C214.847762,95.3731114 215.015461,95.83134 215.115609,96.3357686 L215.454787,98.0310257 L207.865799,99.5381829 L207.527566,97.8429257 C207.426474,97.3389686 207.406161,96.8515114 207.466155,96.3800829 M205.556744,93.1578686 C205.106081,93.84804 204.809418,94.6244829 204.668645,95.4890829 C204.527872,96.3536829 204.554326,97.2776829 204.751314,98.2596686 L205.695627,102.996111 L218.785627,100.39524 L217.845566,95.6781257 C217.64905,94.6951971 217.31932,93.8287114 216.856375,93.0777257 C216.392958,92.3272114 215.821363,91.71954 215.138756,91.2537686 C214.458038,90.7898829 213.682842,90.4806257 212.813639,90.3274114 C211.944909,90.1741971 211.006737,90.19824 209.99629,90.3990686 C208.987731,90.5998971 208.108136,90.9369686 207.357977,91.4121686 C206.608762,91.8859543 206.008351,92.46864 205.556744,93.1578686" id="Fill-74" fill="#000000"></path>
                <path d="M21.0175515,84.5312914 C21.2187908,84.7127914 21.4507356,84.8490343 21.7143307,84.9395486 C21.9717847,85.0277057 22.2339626,85.0616486 22.5008644,85.0404343 C22.7691834,85.0201629 23.0195515,84.9522771 23.2533859,84.83772 C23.4886374,84.7231629 23.6964902,84.5680629 23.8774166,84.3695914 C24.0588153,84.1725343 24.1948644,83.9429486 24.2850914,83.6803629 C24.3757908,83.4173057 24.4107479,83.1518914 24.3890178,82.8850629 C24.3687049,82.6177629 24.3006804,82.3679057 24.1863613,82.1331343 C24.0715699,81.8993057 23.915208,81.6923486 23.7182202,81.5117914 C23.5198153,81.3302914 23.2925945,81.1964057 23.0351405,81.1073057 C22.7720178,81.0172629 22.5046436,80.9823771 22.2339626,81.0017057 C21.963754,81.0219771 21.7110239,81.08892 21.4771896,81.2034771 C21.241938,81.3180343 21.0340853,81.4740771 20.8531589,81.6706629 C20.6717601,81.8686629 20.535711,82.0991914 20.445484,82.3617771 C20.3552571,82.6248343 20.3198276,82.8893057 20.3415577,83.1556629 C20.3618706,83.42202 20.4298951,83.6732914 20.5446865,83.90712 C20.6590055,84.14142 20.8167847,84.3497914 21.0175515,84.5312914" id="Fill-76" fill="#000000"></path>
                <path d="M31.8339258,73.50222 L25.0012387,69.8778771 L25.8142264,68.3518629 C26.0551466,67.8983486 26.3494472,67.5075343 26.6933491,67.1808343 C27.0391405,66.8531914 27.4326436,66.6146486 27.8738583,66.4656771 C28.3155454,66.3171771 28.7983307,66.27192 29.3222141,66.3299057 C29.8456252,66.3878914 30.4011589,66.57222 30.9878706,66.8833629 C31.575527,67.1954486 32.039889,67.5509057 32.3809564,67.95162 C32.7215515,68.3528057 32.9511344,68.77662 33.0682877,69.2211771 C33.1868583,69.6662057 33.2062264,70.1239629 33.1278092,70.5930343 C33.0479748,71.0611629 32.8878337,71.5226914 32.6459687,71.9752629 L31.8339258,73.50222 Z M35.1765761,73.1901343 C35.6475515,72.3057343 35.9418521,71.4260486 36.0594779,70.5524914 C36.1766313,69.6779914 36.118527,68.8463914 35.8856374,68.0553343 C35.6532202,67.26522 35.2483798,66.5373343 34.6720607,65.86932 C34.0971589,65.2022486 33.3550301,64.62852 32.4456742,64.14672 C31.5377356,63.66492 30.6420791,63.3702771 29.7601221,63.2637343 C28.8791098,63.1590771 28.0448644,63.2297914 27.2578583,63.4796486 C26.4708521,63.7290343 25.7495086,64.1438914 25.0924104,64.72422 C24.4348399,65.3040771 23.8708031,66.0371486 23.3998276,66.92202 L21.1285638,71.1851486 L32.9142877,77.4367629 L35.1765761,73.1901343 Z" id="Fill-78" fill="#000000"></path>
                <path d="M34.122054,55.1968371 C34.2694405,54.7343657 34.4834344,54.3185657 34.7649804,53.9494371 C35.0455816,53.58078 35.3894834,53.2635086 35.7966859,52.9980943 C36.2043607,52.73268 36.647465,52.55448 37.127416,52.46208 C37.6068945,52.3701514 38.1208577,52.38948 38.6669436,52.5205371 C39.2139742,52.6520657 39.7614773,52.9264371 40.3113423,53.3422371 C40.8711276,53.7669943 41.2816368,54.2205086 41.5452319,54.7032514 C41.8074098,55.1859943 41.9618822,55.6725086 42.0053423,56.1623229 C42.0502196,56.6526086 41.9954221,57.1268657 41.8442564,57.5850943 C41.6916736,58.0447371 41.4748454,58.4586514 41.1942442,58.8273086 C40.9126982,59.1954943 40.5716307,59.5151229 40.1696245,59.7838371 C39.7676184,60.0534943 39.3216798,60.2345229 38.8332258,60.3278657 C38.3442994,60.42168 37.8317534,60.4061229 37.2951153,60.2821371 C36.7594221,60.1590943 36.2114466,59.8847229 35.6516613,59.4599657 C35.1022687,59.0432229 34.6903423,58.5897086 34.4172994,58.0989514 C34.1442564,57.6096086 33.9907288,57.1179086 33.954827,56.6276229 C33.9189252,56.1359229 33.9751399,55.6588371 34.122054,55.1968371 M31.8489006,59.7489514 C32.3085387,60.5631086 32.9585509,61.2872229 33.798465,61.9245943 C34.6364896,62.5610229 35.5089988,62.9904943 36.4112687,63.2115943 C37.3159006,63.4326943 38.2016368,63.4751229 39.0689497,63.3393514 C39.9376798,63.20358 40.7563362,62.9004514 41.5244466,62.42808 C42.2930294,61.9580657 42.9624098,61.3485086 43.5325877,60.6008229 C44.1018209,59.8526657 44.5085509,59.04888 44.7541951,58.1885229 C45.0003117,57.3281657 45.0721153,56.4626229 44.9710233,55.5923657 C44.8699313,54.7206943 44.5912196,53.8806086 44.1367779,53.0711657 C43.680919,52.2612514 43.0332687,51.5385514 42.1947718,50.9016514 C41.3548577,50.2647514 40.4814037,49.8343371 39.5725202,49.6085229 C38.6641092,49.38318 37.776011,49.3398086 36.9077534,49.47558 C36.0394957,49.6113514 35.2236736,49.9116514 34.4579252,50.3778943 C33.6935939,50.8441371 33.0261031,51.4513371 32.4573423,52.1985514 C31.886692,52.9467086 31.4776,53.7533229 31.2281767,54.6179229 C30.9796982,55.4834657 30.9045877,56.3513657 31.0056798,57.2225657 C31.1067718,58.0942371 31.3883178,58.9357371 31.8489006,59.7489514" id="Fill-80" fill="#000000"></path>
                <polygon id="Fill-82" fill="#000000" points="55.1984184 47.4610714 53.2214552 45.4485429 49.2954 49.2883286 47.5040871 47.4639 51.0527006 43.9918286 49.2217067 42.1278 45.6721485 45.5989286 43.8926454 43.7872286 47.8054736 39.9611143 45.8422098 37.9613143 39.8050319 43.8664286 49.1475411 53.3793857"></polygon>
                <polygon id="Fill-84" fill="#000000" points="63.1347564 41.1568457 58.4760202 33.7837029 66.0810693 39.3031886 68.1189712 38.0209029 66.3460816 28.69746 71.0662288 36.1667743 73.534008 34.6134171 66.4141061 23.3462743 62.9590264 25.5209743 64.8230877 34.9867886 56.9072043 29.3287029 53.6273822 31.3921457 60.7463393 42.6602314"></polygon>
                <polygon id="Fill-86" fill="#000000" points="84.1460724 30.16992 83.0453975 27.5751771 77.9827656 29.71452 76.9841276 27.36162 81.5611399 25.4268771 80.5412442 23.0225914 75.9642319 24.9563914 74.9736245 22.6204629 80.0178331 20.4886629 78.925189 17.9113629 71.1406307 21.20052 76.3449804 33.4656771"></polygon>
                <polygon id="Fill-88" fill="#000000" points="94.7631442 27.0151671 93.9907822 24.3049243 88.702819 25.8054814 88.0022607 23.3469814 92.7828742 21.9906814 92.0676718 19.4793814 87.2865859 20.83521 86.5912239 18.39651 91.8607638 16.9006671 91.0931258 14.2078671 82.9632485 16.5159814 86.6143712 29.3279957"></polygon>
                <polygon id="Fill-90" fill="#000000" points="104.75628 25.2754071 104.20547 16.5751929 108.231672 25.0561929 110.637096 24.9039214 113.555065 15.8722929 114.112488 24.6851786 117.024789 24.50085 116.183458 11.2079786 112.106709 11.4649071 109.199133 20.6653071 104.966967 11.91465 101.096182 12.15885 101.937513 25.4526643"></polygon>
                <polygon id="Fill-92" fill="#000000" points="128.784201 22.8450514 123.313421 22.3146943 123.560955 19.77228 128.507379 20.2512514 128.760581 17.6522657 123.813685 17.1723514 124.059329 14.6478514 129.51263 15.1763229 129.783311 12.39018 121.370943 11.57508 120.079421 24.8321229 128.511158 25.6505229"></polygon>
                <polygon id="Fill-94" fill="#000000" points="134.335712 26.7969429 137.232423 27.4687286 139.611393 17.2585286 143.62673 18.1900714 144.270601 15.4270286 133.360693 12.8949857 132.71635 15.6589714 136.714681 16.5853286"></polygon>
                <polygon id="Fill-96" fill="#000000" points="153.936321 23.77683 153.283475 33.13893 155.454591 34.1822014 162.431831 27.7349443 158.591751 35.6903014 161.221561 36.95373 167.013094 24.9525729 163.332683 23.1833014 156.282223 29.7842443 156.887358 20.0860157 153.393542 18.4063157 147.602481 30.4070014 150.146315 31.63083"></polygon>
                <path d="M172.33011,31.8889843 L173.734061,32.9011414 C174.151183,33.2014414 174.498392,33.5446414 174.777104,33.9307414 C175.055343,34.3173129 175.237214,34.7378271 175.325079,35.1955843 C175.411055,35.6519271 175.390742,36.13467 175.261779,36.6447557 C175.132815,37.1548414 174.874417,37.67907 174.485165,38.21697 C174.094024,38.75487 173.677846,39.1654843 173.233797,39.4473986 C172.788803,39.7293129 172.33814,39.8990271 171.879447,39.9541843 C171.420754,40.0107557 170.964423,39.9669129 170.509509,39.8250129 C170.055539,39.6826414 169.619521,39.46107 169.202398,39.1602986 L167.79892,38.1481414 L172.33011,31.8889843 Z M167.652478,41.4952843 C168.464993,42.0822129 169.297821,42.4932986 170.149545,42.7285414 C171.001269,42.9642557 171.835042,43.0203557 172.651809,42.8982557 C173.467631,42.7761557 174.246134,42.4758557 174.986846,41.9978271 C175.72803,41.5197986 176.3993,40.8645129 177.002545,40.0314986 C177.604846,39.1998986 178.018662,38.3546271 178.244938,37.49757 C178.470269,36.6409843 178.513257,35.8065557 178.372956,34.9947557 C178.233128,34.1824843 177.91946,33.4116986 177.43384,32.68287 C176.946803,31.9540414 176.297263,31.2959271 175.483331,30.70947 L171.561999,27.8818414 L163.745318,38.6784986 L167.652478,41.4952843 Z" id="Fill-98" fill="#000000"></path>
                <polygon id="Fill-100" fill="#000000" points="176.925782 49.0491257 179.06572 51.1111543 186.362769 43.56924 189.327978 46.42704 191.303052 44.3862257 183.244506 36.6217971 181.270377 38.6630829 184.222358 41.5072114"></polygon>
                <path d="M185.511896,52.5781929 C185.336166,52.3816071 185.133982,52.2302786 184.904871,52.1237357 C184.675288,52.0171929 184.43673,51.95685 184.188724,51.9422357 C183.940245,51.9280929 183.696491,51.9606214 183.456515,52.03935 C183.215595,52.11855 182.998294,52.2458357 182.800834,52.4202643 C182.603847,52.5956357 182.451736,52.7974071 182.345448,53.02605 C182.238215,53.2551643 182.178221,53.4932357 182.163577,53.7416786 C182.148933,53.9887071 182.179166,54.23385 182.254276,54.47805 C182.328914,54.7213071 182.454098,54.9414643 182.628883,55.1385214 C182.804141,55.3351071 183.008687,55.48455 183.242521,55.5873214 C183.476828,55.68915 183.719638,55.7499643 183.972368,55.7697643 C184.223681,55.78815 184.470742,55.7579786 184.710718,55.6783071 C184.950693,55.60005 185.168939,55.4727643 185.365926,55.2973929 C185.563387,55.1229643 185.715025,54.9211929 185.821785,54.69255 C185.928546,54.4629643 185.987123,54.2225357 185.997515,53.9703214 C186.007436,53.7181071 185.973423,53.4720214 185.894061,53.2325357 C185.814227,52.99305 185.686681,52.7747786 185.511896,52.5781929" id="Fill-102" fill="#000000"></path>
                <polygon id="Fill-104" fill="#000000" points="187.591557 60.8576571 194.770036 55.8246857 190.752336 65.3461286 192.560655 67.914 203.480483 60.2547 201.770894 57.8263714 195.131416 62.4812571 198.891661 53.7376714 196.813134 50.7860571 185.891888 58.4448857"></polygon>
                <polygon id="Fill-106" fill="#000000" points="197.966669 78.3099429 200.497749 77.0196429 197.878332 71.9004 207.233123 67.1309571 205.880191 64.4876571 193.993847 70.5469286"></polygon>
                <path d="M206.352064,81.02919 C206.154131,81.2102186 205.998714,81.4176471 205.883923,81.6514757 C205.769604,81.8857757 205.702052,82.1361043 205.680794,82.4029329 C205.660481,82.6702329 205.695438,82.9347043 205.786137,83.1977614 C205.875892,83.4603471 206.011941,83.6908757 206.193812,83.8879329 C206.374739,84.0854614 206.583064,84.2405614 206.817371,84.3551186 C207.05215,84.4692043 207.303463,84.53709 207.569892,84.5578329 C207.838211,84.5790471 208.100389,84.5441614 208.356898,84.4560043 C208.620493,84.3659614 208.852438,84.2292471 209.053677,84.0477471 C209.254917,83.8657757 209.412223,83.6569329 209.526542,83.4235757 C209.641334,83.1897471 209.708886,82.9389471 209.729199,82.6721186 C209.749984,82.4048186 209.715027,82.1398757 209.6248,81.87729 C209.533156,81.6147043 209.398052,81.3846471 209.216653,81.1871186 C209.035254,80.98959 208.826929,80.8340186 208.593094,80.7199329 C208.357843,80.6053757 208.105585,80.5384329 207.835377,80.5191043 C207.564223,80.4997757 207.298266,80.5346614 207.034671,80.6251757 C206.777217,80.7142757 206.550469,80.84769 206.352064,81.02919" id="Fill-108" fill="#000000"></path>
                <path d="M103.146271,164.778193 L102.995106,164.768293 L102.948339,164.765936 L102.828351,164.757921 L102.778277,164.755093 L102.695136,164.750379 L102.474529,164.73765 L102.385719,164.732464 C102.37013,164.73105 102.355486,164.729164 102.340369,164.727279 C102.18259,164.711721 102.028118,164.692393 101.874118,164.672593 L101.725787,164.653736 C101.72248,164.652793 101.614774,164.639593 101.580762,164.634879 L101.350707,164.606593 L101.163639,164.583021 C101.095142,164.572179 101.021449,164.558507 100.948228,164.544364 L100.124848,164.389736 L99.9188847,164.351079 C99.8749521,164.34165 99.8286577,164.328921 99.7837804,164.318079 C99.7044184,164.29875 99.6255288,164.280364 99.5447497,164.260093 L99.5324675,164.257264 C99.5319951,164.256793 99.5310503,164.256793 99.5305779,164.256793 L99.4313755,164.230864 C99.4219276,164.228036 99.2802098,164.19315 99.2712344,164.191264 L98.6434245,164.031921 C98.5399706,164.003636 98.4280135,163.967807 98.3151117,163.931507 L98.2007926,163.89615 L98.2007926,163.896621 L97.3608785,163.63545 C97.1837313,163.575579 97.0028049,163.50675 96.8214061,163.43745 L96.4260135,163.290836 C96.3787742,163.273864 96.331535,163.255007 96.2842957,163.237564 C96.2157988,163.212107 96.1473018,163.188064 96.0783325,163.16025 C96.0698294,163.157421 96.0617988,163.15365 96.0532957,163.150821 C95.9214982,163.09755 95.787811,163.03815 95.6545963,162.980636 C95.5790135,162.947636 95.5005963,162.915579 95.4259583,162.882579 L94.7197313,162.577093 C94.7027252,162.569079 94.6843018,162.55965 94.6672957,162.551636 C94.4315718,162.442264 94.1830933,162.319693 93.9331975,162.194764 L93.6573202,162.057579 L93.6407865,162.050036 C93.6299215,162.04485 93.618584,162.039193 93.607719,162.034007 L93.4844245,161.974136 L93.3927804,161.92935 C93.2472834,161.853921 93.1022589,161.769064 92.9577067,161.691279 L92.6634061,161.531936 C92.4607497,161.423036 92.2580933,161.314136 92.0535472,161.19675 C92.0535472,161.19675 92.0530748,161.196279 92.0530748,161.196279 C92.0492957,161.193921 92.0455166,161.192507 92.0417374,161.19015 L77.992308,153.09525 L68.6776699,147.72945 C68.1263877,147.411236 67.6530503,146.994964 67.2586025,146.51835 C67.2141975,146.464607 67.1636515,146.41605 67.1211362,146.361364 C67.1206638,146.360893 67.1206638,146.360421 67.1201914,146.35995 C66.4253018,145.449621 66.0313264,144.322436 66.0336883,143.144807 L66.1234429,111.869293 L66.1626515,97.9696929 L58.8315902,93.7456929 L58.6719215,149.980521 L58.6709767,150.299679 L83.7795902,164.766879 C83.7810074,164.76735 83.7819521,164.76735 83.7833693,164.767821 C83.7838417,164.768293 83.7838417,164.768293 83.7843141,164.768293 L83.7852589,164.768293 C83.8461975,164.804121 83.9071362,164.837121 83.9680748,164.870593 C84.0417681,164.91255 84.1145166,164.951679 84.1882098,164.992693 L86.4419951,166.135436 C86.4462466,166.137321 86.5884368,166.198136 86.5926883,166.200021 L86.8137681,166.296193 L86.9569031,166.358421 C87.1260196,166.432907 87.2951362,166.505036 87.4628356,166.574807 C87.4954307,166.588007 87.5284982,166.603093 87.5610933,166.616293 L87.5837681,166.624779 C87.6843877,166.665793 87.7831178,166.700679 87.8818479,166.736507 L88.0826147,166.811464 L88.2432282,166.870864 C88.4260442,166.941107 88.6098049,167.010879 88.7902589,167.072636 L88.8365534,167.086779 L90.4384368,167.55585 L90.7114798,167.623736 C90.7171485,167.624679 90.8031239,167.647307 90.8087926,167.64825 C90.9254736,167.679364 91.0412098,167.709536 91.1560012,167.734521 L92.5410564,167.976364 L92.6053018,167.98485 C92.6303387,167.987679 92.6553755,167.990036 92.6586822,167.990979 L92.9884123,168.032464 C93.1244613,168.051321 93.2605104,168.069236 93.3941975,168.081021 L93.5023755,168.087621 L93.6521239,168.095164 C93.6634613,168.096107 93.7414061,168.099879 93.7522712,168.100821 C93.7565227,168.100821 93.904854,168.11025 93.9091055,168.11025 L94.0489337,168.118736 C94.1897067,168.128164 94.3309521,168.137593 94.4698356,168.140893 C94.4731423,168.140893 94.4863693,168.140893 94.5043202,168.140893 C94.5515595,168.139007 94.635173,168.136179 94.6569031,168.139007 C94.659265,168.139007 94.6658785,168.139007 94.6663509,168.138536 L94.7608294,168.138064 L94.7721669,168.137593 C94.7764184,168.137593 94.8671178,168.135707 94.8713693,168.135707 L95.1354368,168.133821 C95.2629828,168.133821 95.3900564,168.133821 95.5142957,168.127221 C95.5190196,168.127221 95.5223264,168.12675 95.5270503,168.126279 L95.8307988,168.10035 L95.8548908,168.097993 C95.8553632,168.097993 95.8813448,168.095636 95.9016577,168.094221 L96.0112528,168.085264 L97.1568049,167.940064 L97.1591669,167.940064 C97.2715963,167.923093 97.3835534,167.906121 97.4940933,167.883964 C97.5687313,167.870293 97.6362834,167.852379 97.704308,167.834936 C97.7312344,167.828807 97.7605227,167.822679 97.7869767,167.815607 L98.0718294,167.746779 C98.128989,167.733579 98.1856761,167.718021 98.2428356,167.70435 C98.2976331,167.69115 98.3529031,167.678421 98.4067558,167.663336 L98.8394675,167.524736 L99.0147252,167.468636 C99.0926699,167.444121 99.1696699,167.417721 99.2466699,167.391321 C99.2759583,167.38095 99.3061914,167.372464 99.3350074,167.36115 C99.4275963,167.327207 99.5154613,167.28855 99.6033264,167.250836 L99.8730626,167.136279 L99.8848724,167.131564 C99.9099092,167.119307 99.9576209,167.099507 100.00486,167.081121 L100.004388,167.079236 L100.149885,167.018893 L100.1924,167.000979 C100.28924,166.95525 100.37805,166.908107 100.467333,166.860964 C100.46875,166.860021 100.469694,166.85955 100.471112,166.858607 L100.640228,166.771393 L100.729983,166.72425 C100.823989,166.675693 100.918467,166.629021 101.010584,166.57575 C101.016253,166.572921 101.021449,166.56915 101.027118,166.566321 C101.614302,166.228307 102.193455,165.817221 102.748517,165.342964 C102.948811,165.172307 103.122179,164.971479 103.311609,164.78715 C103.269566,164.784793 103.22705,164.782436 103.18548,164.780079 C103.172725,164.779136 103.159026,164.778664 103.146271,164.778193" id="Fill-110" fill="#FFC505"></path>
                <path d="M108.070634,151.225093 C108.069689,151.259979 108.069217,151.295807 108.068272,151.330693 L108.060713,151.587621 C108.056462,151.780436 108.046069,151.96665 108.038983,152.157579 C108.031898,152.348036 108.028591,152.54085 108.016781,152.72895 C107.995051,153.100436 107.970487,153.472393 107.936002,153.831621 C107.916634,154.031507 107.888763,154.225264 107.864198,154.421379 C107.843885,154.58025 107.827352,154.742421 107.805149,154.900821 C107.756965,155.25675 107.696971,155.604664 107.634615,155.949279 C107.61383,156.064307 107.588321,156.172736 107.565646,156.285879 C107.520769,156.512636 107.477781,156.740336 107.42629,156.961436 C107.346928,157.306993 107.26237,157.646893 107.167891,157.978307 C107.073885,158.310193 106.975628,158.63925 106.867922,158.957936 C106.751241,159.30255 106.626529,159.639621 106.493315,159.96915 C106.424345,160.138864 106.347345,160.298207 106.274597,160.463207 C106.201376,160.628207 106.132407,160.798393 106.054934,160.95915 C106.002499,161.067579 105.94345,161.166579 105.888652,161.272179 C105.768664,161.505536 105.650566,161.740779 105.521603,161.963293 C105.482867,162.030707 105.437045,162.091993 105.397364,162.157993 C105.228247,162.438493 105.054879,162.71475 104.868756,162.981107 L104.664683,162.99855 C104.627836,163.000436 104.590517,162.999493 104.554143,163.000436 C104.462026,163.002321 104.370382,163.004207 104.277321,163.004679 L103.623529,163.01175 C103.494566,163.00845 103.363713,163.000436 103.232861,162.99195 L102.969738,162.975921 L102.888959,162.970736 C102.885652,162.970736 102.854474,162.969321 102.81999,162.967436 C102.811959,162.966964 102.802039,162.966021 102.801566,162.966021 L102.712284,162.961779 C102.707088,162.961307 102.698112,162.960836 102.697167,162.960836 C102.696695,162.960836 102.679689,162.959893 102.673075,162.959421 L102.551671,162.952821 C102.535137,162.951407 102.518131,162.948579 102.501125,162.946693 C102.370272,162.933493 102.237529,162.917464 102.103842,162.900021 L101.950787,162.880221 L101.950315,162.880693 L101.811904,162.86325 L101.772695,162.858064 L101.7401,162.854293 L101.695695,162.848636 L100.48637,162.638379 L100.437713,162.62895 L100.295523,162.60255 C100.236947,162.590293 100.177425,162.574736 100.118376,162.55965 C100.071609,162.548336 100.025787,162.537964 99.9794926,162.526179 L99.8514742,162.49365 L99.1310755,162.31215 C99.0465172,162.288579 98.9619589,162.261236 98.8769282,162.234364 C98.851419,162.22635 98.8325233,162.220221 98.8027626,162.210793 C98.800873,162.210321 98.7758362,162.202307 98.7512718,162.195236 C98.7418239,162.192407 98.723873,162.186279 98.7224558,162.186279 L98.4309896,162.096236 L97.9359221,161.941607 C97.7942043,161.894464 97.6510693,161.839779 97.5079344,161.785093 C97.4909282,161.778964 97.4743945,161.772836 97.4578607,161.766707 L97.3185049,161.71485 L97.0360141,161.60925 C96.9358669,161.573421 96.8357196,161.537593 96.7232902,161.491864 C96.6009405,161.443307 96.4771736,161.388621 96.3543515,161.334407 C96.2617626,161.294336 96.1691736,161.25615 96.0765847,161.215607 L95.7444926,161.071821 C95.7397687,161.069936 95.5904926,161.00535 95.5857687,161.003464 L95.5852963,161.003936 L95.4780632,160.957736 C95.3868914,160.915779 95.2952472,160.868164 95.2036031,160.82385 C95.0363761,160.742293 94.8686767,160.663093 94.7005049,160.578707 L94.6126399,160.535336 L94.607916,160.532979 C94.6041368,160.531093 94.5186337,160.488664 94.5143822,160.486779 L93.5190509,159.961136 C93.516689,159.960193 93.5147994,159.95925 93.5124374,159.957364 C93.5114926,159.956893 93.5105479,159.956421 93.5096031,159.956421 C93.3220632,159.855536 93.1345233,159.755593 92.9455663,159.646221 C92.9450939,159.64575 92.9446215,159.64575 92.9441491,159.64575 C92.9323393,159.63915 92.9200571,159.632079 92.9082472,159.625007 L89.8877687,157.885436 L69.5734681,146.179864 C69.0325785,145.868721 68.5951429,145.422279 68.2923393,144.898993 C67.9904804,144.374764 67.8241982,143.772279 67.8260718,143.149521 L67.9040325,115.430464 L67.9512718,99.0002357 L83.0517748,107.70045 C89.6265356,111.48885 95.8427503,117.990321 100.554394,126.00885 C105.360045,134.185779 108.029536,142.94775 108.071579,150.684836 L108.074413,150.831921 L108.076775,150.96015 C108.076775,151.050193 108.073468,151.137407 108.070634,151.225093 L108.070634,151.225093 Z M102.748186,165.342964 C102.193597,165.817221 101.614444,166.228307 101.02726,166.566321 C101.021591,166.56915 101.016394,166.572921 101.010726,166.57575 C100.918609,166.629021 100.824131,166.675693 100.729652,166.72425 L100.64037,166.771393 L100.471253,166.858607 C100.469836,166.85955 100.468891,166.860021 100.467474,166.860964 C100.37772,166.908107 100.28891,166.95525 100.192542,167.000979 L100.150026,167.018893 L100.004057,167.079236 L100.005002,167.081121 C99.9577626,167.099507 99.9100509,167.119307 99.8845417,167.131564 L99.8732043,167.136279 L99.6034681,167.250836 C99.5156031,167.28855 99.427738,167.327207 99.3346767,167.361621 C99.3058607,167.372464 99.2761,167.381421 99.2468117,167.391321 C99.1698117,167.417721 99.0928117,167.444121 99.0148669,167.468636 L98.8396092,167.524736 L98.4064252,167.663336 C98.3530448,167.678421 98.2977748,167.69115 98.2429773,167.70435 C98.1858178,167.718021 98.1291307,167.733579 98.0719712,167.746779 L97.786646,167.815607 C97.7606644,167.822679 97.7309037,167.828807 97.7044497,167.834936 C97.6364252,167.852379 97.568873,167.870293 97.494235,167.883964 C97.3836951,167.906121 97.271738,167.923093 97.1593086,167.940064 L97.1569466,167.940064 L96.0109221,168.085264 L95.9017994,168.094221 C95.8810141,168.095636 95.8555049,168.097993 95.8550325,168.097993 L95.8304681,168.10035 L95.5267196,168.126279 C95.5224681,168.12675 95.518689,168.127221 95.5144374,168.127693 C95.3901982,168.133821 95.2631245,168.133821 95.1355785,168.133821 L94.871511,168.135707 C94.8667871,168.135707 94.7765601,168.137593 94.7723086,168.137593 L94.7604988,168.138064 L94.6664926,168.138536 C94.6660202,168.139007 94.6589344,168.139007 94.6570448,168.139007 C94.6353147,168.136179 94.5517012,168.139007 94.504462,168.140893 C94.486511,168.140893 94.4728117,168.140893 94.4699773,168.140893 C94.3310939,168.137593 94.1898485,168.128164 94.0486031,168.118736 L93.9087748,168.11025 C93.9045233,168.11025 93.756192,168.100821 93.7524129,168.100821 C93.7415479,168.099879 93.6631307,168.096107 93.6522656,168.095164 L93.5025172,168.087621 L93.3943393,168.081021 C93.2606521,168.069236 93.1246031,168.051321 92.988554,168.032464 L92.6588239,167.990979 C92.6555172,167.990507 92.630008,167.987679 92.6054436,167.98485 L92.5407258,167.976364 L91.1561429,167.734993 C91.0413515,167.709536 90.9256153,167.679364 90.8089344,167.64825 C90.8032656,167.647307 90.7172902,167.624679 90.7111491,167.623736 L90.4381061,167.55585 L88.8366951,167.086779 L88.7904006,167.072636 C88.6094742,167.010879 88.4261859,166.941107 88.2428975,166.870864 L88.082284,166.811936 L87.8819896,166.736507 C87.7827871,166.700679 87.6840571,166.665793 87.5839098,166.624779 L87.5607626,166.616293 C87.5286399,166.603093 87.4951,166.588007 87.4625049,166.574807 C87.2952779,166.505036 87.1261613,166.432907 86.9570448,166.358421 L86.8139098,166.296193 L86.5928301,166.200021 C86.5885785,166.198136 86.4463883,166.137321 86.4421368,166.135436 L84.1878791,164.992693 C84.1146583,164.951679 84.0414374,164.91255 83.9682166,164.870593 C83.9072779,164.837121 83.8458669,164.804121 83.7849282,164.768764 L83.7844558,164.768764 C83.7839834,164.768293 83.783511,164.768293 83.7830387,164.767821 C83.7820939,164.76735 83.7811491,164.76735 83.7797319,164.766879 L58.6711184,150.299679 L58.6720632,149.980521 L58.8317319,93.7456929 L66.1627933,97.9696929 L66.1235847,111.869293 L66.0338301,143.144807 C66.0309957,144.322436 66.4254436,145.449621 67.1203331,146.35995 C67.1203331,146.360421 67.1208055,146.360893 67.1212779,146.361364 C67.1633209,146.41605 67.2138669,146.464607 67.2582718,146.51835 C67.653192,146.994964 68.1260571,147.411236 68.6778117,147.72945 L77.9924497,153.09525 L92.0414067,161.19015 C92.0456583,161.192507 92.048965,161.193921 92.0527442,161.196279 C92.0532166,161.196279 92.0532166,161.19675 92.053689,161.19675 C92.2577626,161.314136 92.4608914,161.423036 92.6635479,161.531936 L92.9573761,161.691279 C93.1019282,161.769064 93.2474252,161.853921 93.3924497,161.92935 L93.4845663,161.974136 L93.6078607,162.034007 C93.6187258,162.039193 93.6300632,162.04485 93.6409282,162.050036 L93.6569896,162.05805 L93.9333393,162.194764 C94.183235,162.319693 94.4317135,162.442264 94.6674374,162.551636 C94.6844436,162.55965 94.7028669,162.569079 94.7194006,162.577093 L95.4256276,162.88305 C95.500738,162.915579 95.5791552,162.947636 95.6542656,162.980636 C95.7879528,163.03815 95.9211675,163.09755 96.0534374,163.150821 C96.0619405,163.15365 96.0699712,163.157421 96.0784742,163.16025 C96.1474436,163.188064 96.2154681,163.212107 96.283965,163.237564 C96.3312043,163.255007 96.378916,163.273864 96.4261552,163.290836 L96.8215479,163.43745 C97.0029466,163.50675 97.183873,163.575579 97.3610202,163.63545 L98.2009344,163.896621 L98.2009344,163.89615 L98.3152534,163.931507 C98.4281552,163.967807 98.5401123,164.003636 98.6430939,164.031921 L99.2713761,164.191264 C99.2803515,164.19315 99.4215969,164.228036 99.4310448,164.230864 L99.5302472,164.256793 C99.531192,164.256793 99.5316644,164.256793 99.5326092,164.257264 L99.5448914,164.260093 C99.6256706,164.280364 99.7045601,164.29875 99.7839221,164.318079 C99.828327,164.328921 99.8746215,164.34165 99.9190264,164.351079 L100.12499,164.389736 L100.947898,164.544364 C101.021591,164.558507 101.094812,164.572179 101.163781,164.583021 L101.350848,164.606593 L101.580431,164.634879 C101.614916,164.639593 101.722621,164.652793 101.725928,164.653736 L101.873787,164.672593 C102.027787,164.692393 102.182732,164.711721 102.340511,164.727279 C102.355628,164.729164 102.370272,164.73105 102.385388,164.732464 L102.474198,164.73765 L102.695278,164.750379 L102.778419,164.755093 L102.82802,164.757921 L102.948008,164.765936 L102.995247,164.768764 L103.146413,164.778193 C103.159167,164.778664 103.172394,164.779136 103.185149,164.780079 C103.227192,164.782436 103.269235,164.784793 103.31175,164.78715 C103.121848,164.971479 102.948953,165.172307 102.748186,165.342964 L102.748186,165.342964 Z M109.864781,150.797979 L109.862891,150.670693 C109.854388,149.130064 109.744321,147.549836 109.540247,145.94415 C108.881732,140.764093 107.224106,135.310136 104.68594,129.976864 C103.905548,128.337236 103.042959,126.708921 102.100063,125.103707 C97.2334742,116.823064 90.7867319,110.092479 83.9479037,106.152279 L67.5076951,96.6808071 C67.5072227,96.6803357 67.5067503,96.6803357 67.5067503,96.6803357 L66.3678117,96.0241071 L58.3886276,91.4257929 C58.1113331,91.2650357 57.770738,91.2659786 57.493916,91.42485 C57.4244742,91.46445 57.361646,91.5130071 57.3068485,91.5681643 C57.141511,91.7326929 57.0451429,91.9585071 57.0446706,92.1979929 L56.8798055,150.48165 L56.8783844,150.812121 L56.8783844,150.813064 C56.8774436,151.134107 57.0484497,151.430164 57.326689,151.589979 L82.8878546,166.317407 C82.8958853,166.322121 82.9043883,166.325893 82.9128914,166.331079 C82.9237564,166.337207 82.9393454,166.345221 82.9502104,166.351821 C82.9506828,166.351821 82.9511552,166.352293 82.9511552,166.352293 C82.9516276,166.352764 82.9521,166.352764 82.9525724,166.353236 C83.0494129,166.407921 83.1528669,166.465907 83.2823025,166.53615 C83.2931675,166.541336 83.3040325,166.547936 83.3148975,166.554064 C83.3153699,166.554536 83.3153699,166.554536 83.3158423,166.554536 C83.3172595,166.555479 83.3182043,166.556421 83.3191491,166.556421 L84.0296276,166.94205 C84.0305724,166.942521 84.0319896,166.942993 84.0329344,166.943464 C84.1033209,166.980236 84.173235,167.022193 84.2436215,167.058493 L84.4576153,167.163621 C84.4746215,167.172107 84.4921,167.180593 84.5100509,167.188136 L84.6734988,167.26875 C84.6753883,167.269221 84.6758607,167.270636 84.6772779,167.271579 L84.7939589,167.327679 C85.0561368,167.458736 85.3187871,167.590736 85.5786031,167.71095 C85.5786031,167.71095 85.6754436,167.752907 85.6891429,167.758564 L85.6919773,167.759979 L85.6929221,167.759979 C85.6933945,167.76045 85.6971736,167.761864 85.6971736,167.761864 C85.7028423,167.76375 85.8752656,167.838707 85.8809344,167.841536 C85.8823515,167.841536 85.9721061,167.880193 85.9730509,167.880193 L86.2333393,167.992864 C86.2512902,168.000879 86.2697135,168.008421 86.287192,168.015964 L86.3060877,168.025393 C86.5068546,168.113079 86.7071491,168.201236 86.8743761,168.267236 C86.8809896,168.270064 86.8885479,168.272893 86.8951613,168.275721 C86.903192,168.279021 86.9107503,168.282321 86.9183086,168.28515 C87.0458546,168.335593 87.1719834,168.382264 87.2976399,168.42705 L87.6051675,168.541607 C87.6127258,168.544907 87.6198117,168.547264 87.6273699,168.550093 L87.6812227,168.570364 C87.8588423,168.637779 88.0355172,168.704721 88.2230571,168.769307 L88.9373147,168.990407 L89.1399712,169.052636 C89.140916,169.053107 89.140916,169.053107 89.1418607,169.053579 C89.1702043,169.062536 89.1994926,169.071964 89.2032718,169.072907 L89.2226399,169.078093 C89.3152288,169.108264 89.409235,169.138907 89.4956828,169.162007 L90.0063393,169.290236 L90.0313761,169.297307 L90.0313761,169.296836 L90.1641184,169.330307 L90.3568546,169.378864 C90.3937012,169.388293 90.4352718,169.397721 90.4725908,169.40715 C90.5717933,169.432607 90.6705233,169.459007 90.7692534,169.481164 L91.2359773,169.567907 C91.241646,169.56885 91.3266767,169.584879 91.3323454,169.585821 L91.3460448,169.588179 L91.7967074,169.672093 C91.8713454,169.687179 91.9459834,169.701321 92.0003086,169.709336 L92.4127074,169.761664 L92.4268791,169.764021 L92.4268791,169.76355 L92.6881123,169.797021 L92.770781,169.807864 C92.9261982,169.827664 93.0816153,169.847464 93.2356153,169.861607 L93.9319221,169.903093 C93.9956951,169.907336 94.0561613,169.90875 94.1189896,169.912521 C94.222916,169.91865 94.3277871,169.926193 94.4279344,169.929021 L94.8823761,169.922893 L94.9891368,169.922893 L95.1653393,169.921007 C95.311781,169.921007 95.4591675,169.920064 95.6004129,169.912993 C95.6878055,169.909221 95.7733086,169.901207 95.859284,169.893193 L96.5267748,169.835207 L96.7053393,169.816821 L96.8371368,169.800793 C96.9613761,169.783821 97.0837258,169.763079 97.2769344,169.731964 L97.4460509,169.705093 C97.5632043,169.687179 97.6798853,169.667379 97.7979834,169.64475 C97.8149896,169.64145 97.8315233,169.640036 97.8485294,169.636264 C97.9708791,169.612693 98.0918117,169.58205 98.2122718,169.551879 L98.4985417,169.48305 C98.6317564,169.451464 98.7640264,169.420821 98.9246399,169.376036 L98.9293638,169.37415 L98.930781,169.37415 L98.9992779,169.351993 L99.570873,169.169079 C99.7017258,169.12665 99.8311613,169.084693 99.9563454,169.038021 C99.9591798,169.037079 99.9615417,169.036136 99.9648485,169.035193 C100.042321,169.005964 100.117904,168.972493 100.193487,168.940907 C100.23364,168.923936 100.274738,168.90885 100.314419,168.891407 L100.322922,168.887636 C100.326701,168.88575 100.330953,168.884336 100.334732,168.882921 L100.585572,168.776379 C100.594548,168.773079 100.751855,168.706607 100.76083,168.702836 C100.80429,168.684921 100.845388,168.666536 100.886959,168.64815 C100.914358,168.636364 100.938922,168.626936 100.96821,168.613264 C101.085364,168.557164 101.200628,168.496821 101.314002,168.436007 L101.331008,168.42705 C101.33337,168.425636 101.335732,168.424693 101.338094,168.423279 L101.545474,168.315793 C101.671603,168.251207 101.79726,168.186621 101.919609,168.115907 L101.919609,168.115907 C101.920082,168.115436 101.920554,168.115436 101.921026,168.114964 C101.921499,168.114964 101.921971,168.114493 101.921971,168.114493 C101.924806,168.113079 101.92764,168.111664 101.929529,168.11025 C102.084474,168.02115 102.234695,167.913193 102.38775,167.816079 C102.90691,167.486079 103.420401,167.122607 103.914051,166.700679 C104.359517,166.320707 104.775695,165.907264 105.165891,165.477321 C105.223996,165.41415 105.286352,165.353807 105.343511,165.289221 C105.37091,165.258107 105.394529,165.221807 105.421456,165.190693 C105.64726,164.92575 105.865505,164.651379 106.076192,164.366164 C106.076192,164.365693 106.076664,164.365221 106.076664,164.365221 C106.077137,164.36475 106.077137,164.36475 106.077609,164.364279 L106.147523,164.270936 C106.205155,164.194093 106.261842,164.11725 106.310971,164.046064 C106.336008,164.010707 106.357266,163.970636 106.382302,163.934807 C106.62275,163.587836 106.857057,163.232379 107.075302,162.854293 C107.235444,162.57615 107.384247,162.284807 107.531634,161.992993 C107.576511,161.904364 107.626112,161.823279 107.669572,161.733707 C107.755075,161.55645 107.830658,161.369293 107.911437,161.186379 C107.992217,161.003464 108.07772,160.826207 108.154247,160.637636 C108.299744,160.278407 108.435793,159.909279 108.566174,159.52695 C108.68191,159.181393 108.790088,158.824521 108.892597,158.462936 C108.993689,158.103236 109.084861,157.73835 109.173198,157.360264 C109.25445,157.003393 109.330033,156.638507 109.397112,156.268436 C109.465137,155.899307 109.526548,155.526407 109.580401,155.144079 C109.606382,154.955979 109.626223,154.763164 109.649842,154.573179 C109.673462,154.382721 109.700388,154.196507 109.719756,154.001336 C109.756131,153.620893 109.78164,153.228664 109.80526,152.833136 C109.818014,152.615336 109.822738,152.390936 109.830769,152.168893 C109.837382,151.98645 109.847302,151.808721 109.852026,151.622507 L109.859112,151.375007 C109.861947,151.281193 109.863364,151.189736 109.864781,151.097336 C109.865726,151.051607 109.868088,151.007764 109.868088,150.96015 L109.864781,150.797979 Z" id="Fill-112" fill="#000000"></path>
                <path d="M123.834234,147.507973 L123.80967,138.779944 L125.152682,138.005859 C125.600038,137.748459 126.100774,137.619759 126.601038,137.619759 C127.101774,137.62023 127.60251,137.749401 128.048921,138.006801 L134.180578,141.544873 L132.600897,142.455201 L123.834234,147.507973 Z M163.743854,97.2206871 L163.785429,111.661487 C163.785897,111.934444 163.74905,112.201273 163.687639,112.46103 C163.530805,113.128573 163.180762,113.735773 162.680971,114.20673 C162.486817,114.389644 162.27424,114.555587 162.038044,114.69183 L153.664412,119.51643 C152.030406,120.457401 151.017124,122.213473 151.02232,124.10013 L151.090345,148.329673 C151.092234,148.95243 150.925952,149.554444 150.624093,150.078201 C150.321762,150.601487 149.884326,151.04793 149.342964,151.359073 L136.771179,158.603516 L136.869909,141.551473 C136.870382,141.502916 136.859044,141.455773 136.851958,141.408159 C136.847234,141.38223 136.848179,141.354887 136.841566,141.329901 C136.837787,141.315287 136.83259,141.302559 136.828339,141.288887 C136.82267,141.27003 136.813222,141.252587 136.805664,141.234201 C136.799523,141.218173 136.793382,141.202616 136.786296,141.187059 C136.776375,141.165373 136.770707,141.142273 136.759369,141.12153 C136.741418,141.08853 136.717326,141.059773 136.696069,141.02913 C136.681425,141.00933 136.669142,140.990001 136.653553,140.971144 C136.644106,140.95983 136.636075,140.948516 136.626155,140.937673 C136.599701,140.909859 136.56805,140.886759 136.538762,140.862244 C136.51467,140.841973 136.493885,140.818873 136.467431,140.800959 C136.460817,140.796716 136.452314,140.795301 136.444756,140.790587 C136.43767,140.785873 136.432001,140.779273 136.424443,140.77503 C136.423498,140.774087 136.423026,140.773144 136.422081,140.772673 L128.945995,136.459573 C128.646971,136.286559 128.33094,136.15833 128.007823,136.056973 C127.939799,136.035759 127.874609,136.007473 127.806112,135.989559 C127.766431,135.979187 127.725805,135.975416 127.685652,135.965987 C127.432921,135.906116 127.17594,135.872173 126.918013,135.853316 C126.872191,135.850016 126.826842,135.846716 126.780547,135.844359 C126.720081,135.842001 126.66056,135.833044 126.600093,135.833044 C126.397909,135.833044 126.195725,135.846244 125.994486,135.871701 C125.390296,135.949959 124.79886,136.14513 124.256553,136.458159 L123.803529,136.718859 L123.786995,131.022587 L123.757707,120.260344 L159.556093,99.6334586 L163.743854,97.2206871 Z M160.38467,126.968773 L160.466394,155.756559 L136.708823,169.444016 L136.758897,160.675444 L150.238621,152.908659 C151.013345,152.462687 151.642099,151.829087 152.095596,151.089887 C152.599639,150.268659 152.884964,149.316373 152.88213,148.324016 L152.813161,124.095416 C152.810326,123.004059 153.322872,121.978701 154.175069,121.322473 C154.296474,121.22913 154.425437,121.142859 154.560069,121.065073 L162.933701,116.240001 C164.261596,115.474873 165.168118,114.169487 165.463363,112.696273 C165.531388,112.356373 165.57721,112.010816 165.576265,111.657244 L165.576265,111.656773 L165.532805,96.1901443 L173.083529,91.8402729 L173.160529,119.088373 L160.832026,126.191387 C160.554259,126.351201 160.383725,126.64773 160.38467,126.968773 L160.38467,126.968773 Z M174.60794,89.6622729 C174.553142,89.6071157 174.490314,89.5585586 174.420872,89.5184871 C174.14405,89.3605586 173.803455,89.3596157 173.526161,89.51943 L135.191026,111.608687 C135.190081,111.608687 135.190081,111.608687 135.190081,111.609159 L122.411388,118.970987 C122.133148,119.132216 121.962615,119.427801 121.963556,119.748373 L122.047173,149.057559 C122.048118,149.376716 122.218652,149.670416 122.495946,149.829287 C122.772768,149.98863 123.113363,149.98863 123.390658,149.829287 L135.069148,143.096816 L134.979394,158.692616 L134.970891,160.15263 L134.967112,160.771144 L134.908063,170.992659 C134.906173,171.313701 135.076234,171.61023 135.354001,171.770987 C135.492885,171.851601 135.648302,171.892144 135.803719,171.892144 C135.958191,171.892144 136.112664,171.852544 136.251547,171.772873 L161.811296,157.045444 C162.089063,156.886101 162.260069,156.589573 162.259124,156.26853 L162.1774,127.480744 L174.506375,120.37773 C174.784142,120.217916 174.955148,119.921387 174.954208,119.600816 L174.87059,90.2921014 C174.869645,90.0526157 174.773277,89.8268014 174.60794,89.6622729 L174.60794,89.6622729 Z" id="Fill-114" fill="#000000"></path>
                <path d="M50.0846736,79.0755429 L94.7130233,104.788671 C94.7205816,104.793386 94.7290847,104.794329 94.7366429,104.798571 C94.7423117,104.801871 94.745146,104.807529 94.7503423,104.810357 L114.441085,116.2458 L114.441085,164.357914 L114.441085,190.209171 L49.8749313,153.043157 L50.0846736,79.0755429 Z M116.231925,190.209171 L116.231925,164.357914 L116.231925,116.2458 L180.473545,79.0764857 L180.683287,153.038914 L116.231925,190.209171 Z M115.067005,40.3608857 L179.575999,77.5287857 L115.336741,114.697157 L102.805582,107.388129 L95.6086798,103.240971 C95.6086798,103.2405 95.6082074,103.240971 95.607735,103.2405 L50.9798577,77.5278429 L115.067005,40.3608857 Z M115.336741,192.651171 C115.340993,192.651171 115.343827,192.649286 115.348079,192.649286 C115.452005,192.647871 115.548845,192.623829 115.641434,192.590357 C115.668361,192.579986 115.695287,192.569614 115.721269,192.556886 C115.742054,192.546986 115.765201,192.542271 115.785514,192.530486 L182.027717,154.327329 C182.05795,154.309414 182.075901,154.281129 182.103299,154.260386 C182.157152,154.220786 182.209588,154.1793 182.252103,154.1298 C182.286588,154.089257 182.313987,154.043057 182.341385,153.996857 C182.370674,153.945943 182.39949,153.894557 182.418385,153.838929 C182.437753,153.782829 182.445784,153.722957 182.453342,153.662614 C182.458539,153.624429 182.475545,153.590957 182.475545,153.551357 L182.260134,77.5245429 C182.260134,77.5061571 182.250686,77.4906 182.249269,77.4726857 C182.246907,77.4335571 182.24171,77.3967857 182.234152,77.3581286 C182.226121,77.3166429 182.215256,77.2779857 182.201557,77.2383857 C182.18833,77.2002 182.174631,77.1648429 182.15668,77.1294857 C182.148177,77.1129857 182.148649,77.0950714 182.139674,77.0790429 C182.130226,77.0630143 182.114164,77.0540571 182.104244,77.0389714 C182.082987,77.0064429 182.059367,76.9776857 182.033385,76.9479857 C182.005514,76.9154571 181.976698,76.8867 181.944575,76.8588857 C181.91387,76.8329571 181.884582,76.8093857 181.851514,76.7877 C181.836398,76.7778 181.828367,76.7622429 181.812778,76.7532857 L115.513416,38.5543714 C115.236121,38.3945571 114.894582,38.3950286 114.615398,38.5553143 L48.7435509,76.7575286 C48.7213485,76.7702571 48.7043423,76.7886429 48.6835571,76.8037286 C48.6651337,76.8164571 48.6476552,76.8301286 48.6306491,76.8442714 C48.5493975,76.9107429 48.4742871,76.9875857 48.4185448,77.0837571 C48.3632748,77.1789857 48.3349313,77.2808143 48.3179252,77.3831143 C48.3136736,77.4076286 48.3098945,77.4321429 48.3075325,77.4566571 C48.3056429,77.4807 48.2980847,77.5038 48.2980847,77.5278429 L48.0821973,153.5556 C48.0821973,153.876171 48.2522626,154.172229 48.5305018,154.332514 L114.89033,192.531429 C114.909698,192.542271 114.930956,192.546514 114.950796,192.555943 C114.978667,192.569143 115.006539,192.580457 115.034882,192.590829 C115.125582,192.623357 115.220533,192.646929 115.322097,192.648814 C115.326821,192.648814 115.331545,192.651171 115.336741,192.651171 L115.336741,192.651171 Z" id="Fill-116" fill="#000000"></path>
                <path d="M115.112024,47.0775643 L164.44257,75.4999929 L161.328085,77.3065071 L158.94014,78.6910929 L122.024545,57.4207071 L117.762147,54.9650357 C117.761674,54.9650357 117.761674,54.9645643 117.761202,54.9645643 L117.761202,54.9645643 C117.757423,54.9622071 117.752226,54.9603214 117.747975,54.9579643 C117.54768,54.8434071 117.34219,54.74205 117.13103,54.6557786 C117.096545,54.6416357 117.059699,54.6336214 117.024742,54.6204214 C116.843343,54.5501786 116.660527,54.4851214 116.474404,54.4356214 C116.410159,54.4191214 116.344024,54.41205 116.279779,54.3974357 C116.12011,54.3620786 115.960441,54.3248357 115.79841,54.3040929 C115.7233,54.2946643 115.647717,54.2960786 115.572134,54.2894786 C115.420969,54.27675 115.270748,54.26025 115.119582,54.26025 C115.117693,54.26025 115.115803,54.2607214 115.113913,54.2607214 C115.013766,54.2607214 114.913619,54.2743929 114.813472,54.28005 C114.684509,54.2875929 114.555073,54.2890071 114.426582,54.3059786 C114.34911,54.3158786 114.273527,54.3375643 114.196527,54.3512357 C114.046779,54.3776357 113.896558,54.4007357 113.749171,54.4398643 C113.722245,54.4469357 113.696736,54.4591929 113.669809,54.4667357 C113.252687,54.5850643 112.845956,54.7505357 112.461901,54.9735214 L98.2523307,63.21975 L98.2523307,56.8611214 L115.112024,47.0775643 Z M82.5249626,65.9761929 L96.4605454,65.9761929 L96.4605454,69.1272214 C96.4605454,69.8480357 96.2404104,70.5188786 95.8634411,71.0756357 C95.2346865,72.0034071 94.1703859,72.6143786 92.9662571,72.6143786 L82.2830975,72.6143786 C82.124846,72.6143786 81.9694288,72.6563357 81.8329074,72.7355357 L72.805484,77.9716929 L71.615527,78.6618643 L66.1159319,75.4929214 L72.9883,71.5069929 L82.5249626,65.9761929 Z M141.28919,80.6046214 C141.013312,80.4429214 140.670828,80.4433929 140.393061,80.6022643 C140.115294,80.7616071 139.944288,81.0571929 139.944288,81.3768214 L139.944288,89.2185643 L132.740772,89.2195071 L125.724797,89.2199786 L125.631263,89.2199786 C125.611423,89.2199786 125.594417,89.23035 125.574576,89.2312929 C125.497576,89.2364786 125.424355,89.2525071 125.353969,89.2756071 C125.31476,89.2888071 125.276969,89.3005929 125.240122,89.3189786 C125.160288,89.3581071 125.084705,89.4061929 125.020932,89.4665357 C125.014791,89.4717214 125.007233,89.47455 125.002036,89.4802071 C124.996367,89.4853929 124.993533,89.4919929 124.988809,89.4967071 C124.984085,89.5014214 124.981723,89.50755 124.976999,89.5122643 C124.927398,89.5650643 124.880631,89.6211643 124.844729,89.6871643 C124.837644,89.6998929 124.838588,89.7135643 124.832447,89.7262929 C124.824889,89.74185 124.822999,89.7597643 124.817331,89.7757929 C124.804104,89.8139786 124.791821,89.8521643 124.781429,89.8917643 C124.780484,89.8955357 124.779067,89.8988357 124.778594,89.9016643 C124.764423,89.9572929 124.746944,90.0115071 124.744582,90.0704357 C124.743637,90.0855214 124.735607,90.09825 124.735607,90.1138071 L124.735607,98.5269214 L124.735607,98.5283357 L115.446006,103.916293 L73.4040055,79.6924071 L82.5249626,74.4025071 L92.9667294,74.4025071 C94.6059319,74.4025071 96.0736558,73.6534071 97.0434779,72.4804929 C97.7983613,71.5682786 98.2523307,70.3996071 98.2523307,69.12675 L98.2523307,65.2869643 L113.363226,56.5188643 C113.715159,56.3142643 114.096852,56.1832071 114.486576,56.1120214 C114.844177,56.0464929 115.208392,56.0299929 115.567883,56.0761929 C115.604729,56.0809071 115.640159,56.09175 115.676533,56.0974071 C115.789907,56.1153214 115.903282,56.1337071 116.014766,56.1629357 C116.309067,56.2407214 116.595809,56.3571643 116.866018,56.5127357 L145.158558,72.8147357 L157.154496,79.72635 L148.464834,84.7663929 L141.28919,80.6046214 Z M126.527392,97.4893071 L126.527392,91.61625 L131.762447,94.4533071 L126.527392,97.4893071 Z M115.447895,105.843021 C115.603312,105.843021 115.758729,105.802479 115.89714,105.721864 L126.570852,99.5324786 C126.572269,99.5320071 126.572742,99.5305929 126.573687,99.5301214 L134.039852,95.1995786 C134.135275,95.1444214 134.210858,95.0704071 134.276048,94.9907357 C134.293055,94.9699929 134.309588,94.9487786 134.324233,94.9275643 C134.379975,94.8450643 134.426742,94.7573786 134.452723,94.6626214 C134.453196,94.6597929 134.455085,94.6569643 134.45603,94.6536643 C134.476343,94.57635 134.487208,94.4957357 134.486263,94.4137071 C134.485791,94.3920214 134.478233,94.37175 134.476343,94.3500643 C134.473981,94.3236643 134.469729,94.2982071 134.465006,94.2722786 C134.448472,94.1784643 134.419656,94.0851214 134.371472,93.9969643 C134.368165,93.9908357 134.368637,93.9837643 134.364858,93.9771643 C134.363913,93.97575 134.362024,93.9748071 134.360607,93.9729214 C134.305809,93.8795786 134.233061,93.8050929 134.154171,93.7400357 C134.132913,93.7230643 134.110711,93.7075071 134.088036,93.69195 C134.063944,93.6759214 134.044104,93.6551786 134.018122,93.6410357 L129.157674,91.0076357 L131.603723,91.0071643 L140.839944,91.0062214 C141.087006,91.0062214 141.31092,90.9062786 141.473423,90.7441071 C141.489484,90.7280786 141.497042,90.7045071 141.512159,90.6870643 C141.57168,90.6172929 141.62884,90.5456357 141.664742,90.4603071 C141.685999,90.4108071 141.685527,90.3528214 141.697337,90.29955 C141.711509,90.2373214 141.735128,90.1788643 141.735128,90.1128643 L141.735128,90.1123929 L141.735128,82.9301786 L148.014644,86.5724357 C148.291938,86.7346071 148.637257,86.7341357 148.914552,86.5729071 L159.389386,80.49855 C159.389858,80.4980786 159.390803,80.4980786 159.391275,80.4976071 L162.358846,78.7764214 L166.679349,76.2707786 C166.956644,76.1100214 167.125292,75.8153786 167.125292,75.4962214 C167.125292,75.4962214 167.125292,75.4962214 167.125292,75.4962214 C167.125292,75.49575 167.125292,75.49575 167.125292,75.49575 C167.125292,75.1770643 166.954282,74.8828929 166.67746,74.72355 L115.558435,45.2705786 C115.419552,45.1904357 115.264134,45.1508316 115.108717,45.1508316 C115.065257,45.1508316 115.023214,45.1616786 114.980226,45.1678071 C114.946214,45.1729929 114.912202,45.1725214 114.878662,45.1814786 C114.842288,45.1909071 114.808748,45.2107071 114.773318,45.2253214 C114.735999,45.2404071 114.696791,45.2507786 114.660889,45.2715214 L96.906484,55.5741214 C96.8375147,55.6141929 96.7751589,55.66275 96.7203613,55.7179071 C96.5559687,55.8829071 96.4605454,56.10825 96.4605454,56.3472643 L96.4605454,64.1890071 L82.2835699,64.1890071 L82.2830975,64.1890071 C82.124846,64.1890071 81.9694288,64.2304929 81.8329074,64.3096929 L71.3986988,70.36095 L63.8786804,74.7226071 C63.809711,74.7626786 63.7473552,74.8112357 63.6925577,74.8663929 C63.528165,75.0318643 63.4332124,75.2576786 63.4332124,75.4971643 C63.4332124,75.81585 63.6037479,76.1100214 63.8805699,76.2698357 L71.169116,80.4693214 C71.1695883,80.4693214 71.1695883,80.4697929 71.1705331,80.4697929 L115.000539,105.723279 C115.138478,105.80295 115.293423,105.843021 115.447895,105.843021 L115.447895,105.843021 Z" id="Fill-118" fill="#000000"></path>
            </g>
        </g>
    </g>
</svg>