<?xml version="1.0" encoding="UTF-8" standalone="no"?>
<!-- Created with Inkscape (http://www.inkscape.org/) -->

<svg
   width="65.798515mm"
   height="99.12677mm"
   viewBox="0 0 65.798515 99.12677"
   version="1.1"
   id="svg1"
   xmlns="http://www.w3.org/2000/svg"
   xmlns:svg="http://www.w3.org/2000/svg">
  <defs
     id="defs1" />
  <g
     id="layer1"
     transform="translate(-87.417694,-97.123341)">
    <path
       fill="#ffffff"
       d="m 120.17741,98.1424 h 0.0496 c 0.52297,0 1.04593,0.0124 1.5689,0.0382 0.52193,0.0258 1.04386,0.0641 1.56476,0.11472 0.51986,0.0517 1.03973,0.11576 1.55649,0.19224 0.5178,0.0775 1.03353,0.1664 1.54616,0.26872 0.51367,0.10128 1.0232,0.21601 1.53169,0.34313 0.50746,0.12712 1.01079,0.26665 1.51205,0.41858 0.50023,0.15193 0.99736,0.31626 1.48932,0.49196 0.49299,0.17673 0.98082,0.36483 1.46451,0.5643 0.48266,0.20051 0.96118,0.41238 1.43454,0.63562 0.47232,0.22428 0.93947,0.45889 1.40146,0.7059 0.46096,0.24598 0.91571,0.50437 1.36529,0.77308 0.44855,0.26872 0.88987,0.54881 1.32499,0.83923 0.43511,0.29042 0.86299,0.59118 1.28261,0.9033 0.42064,0.3111 0.83302,0.63356 1.23713,0.96532 0.40514,0.33176 0.80098,0.67283 1.18856,1.02423 0.38757,0.3514 0.76584,0.7121 1.13585,1.0821 0.37,0.36897 0.7307,0.74828 1.0821,1.13585 0.3514,0.38757 0.6935,0.78341 1.02526,1.18752 0.33176,0.40411 0.65319,0.81649 0.96532,1.23714 0.31109,0.41961 0.61288,0.84749 0.9033,1.28261 0.29042,0.43408 0.57051,0.87643 0.83923,1.32498 0.26871,0.44855 0.5271,0.9033 0.77411,1.36426 0.24598,0.46198 0.48162,0.92914 0.70487,1.40146 0.22427,0.47336 0.43614,0.95085 0.63562,1.43454 0.2005,0.48266 0.3886,0.97048 0.56534,1.46348 0.1757,0.49196 0.34003,0.98908 0.49195,1.48931 0.15193,0.50023 0.29146,1.00459 0.41858,1.51205 0.12713,0.50747 0.24185,1.017 0.34314,1.53066 0.10231,0.51263 0.19223,1.02733 0.26871,1.54512 0.0765,0.5178 0.14056,1.03663 0.19224,1.5565 0.0506,0.5209 0.0899,1.04283 0.11575,1.56476 0.0248,0.52193 0.0382,1.0449 0.0382,1.56786 v 33.39538 c 0,0.52297 -0.0134,1.04593 -0.0382,1.5689 -0.0258,0.52193 -0.0651,1.04386 -0.11575,1.56373 -0.0517,0.5209 -0.11576,1.03973 -0.19224,1.55753 -0.0765,0.51676 -0.1664,1.03249 -0.26871,1.54512 -0.10129,0.51263 -0.21601,1.02319 -0.34314,1.53066 -0.12712,0.50746 -0.26665,1.01182 -0.41858,1.51205 -0.15192,0.50023 -0.31625,0.99632 -0.49195,1.48931 -0.17674,0.49196 -0.36484,0.97979 -0.56534,1.46348 -0.19948,0.48369 -0.41135,0.96118 -0.63562,1.43454 -0.22325,0.47232 -0.45889,0.93947 -0.70487,1.40043 -0.24701,0.46199 -0.5054,0.91674 -0.77411,1.36529 -0.26872,0.44855 -0.54881,0.88987 -0.83923,1.32498 -0.29042,0.43512 -0.59221,0.863 -0.9033,1.28261 -0.31213,0.42065 -0.63356,0.83199 -0.96532,1.23714 -0.33176,0.40411 -0.67386,0.79995 -1.02526,1.18752 -0.3514,0.38757 -0.7121,0.76585 -1.0821,1.13585 -0.37001,0.37 -0.74828,0.7307 -1.13585,1.0821 -0.38758,0.3514 -0.78342,0.69247 -1.18856,1.02423 -0.40411,0.33176 -0.81649,0.65319 -1.23713,0.96532 -0.41962,0.31109 -0.8475,0.61288 -1.28261,0.9033 -0.43512,0.29042 -0.87644,0.57051 -1.32499,0.83923 -0.44958,0.26871 -0.90433,0.52606 -1.36529,0.77307 -0.46199,0.24598 -0.92914,0.48163 -1.40146,0.70487 -0.47336,0.22428 -0.95188,0.43615 -1.43454,0.63562 -0.48369,0.20051 -0.97152,0.38861 -1.46451,0.56534 -0.49196,0.1757 -0.98909,0.34003 -1.48932,0.49196 -0.50126,0.15193 -1.00459,0.29042 -1.51205,0.41755 -0.50849,0.12712 -1.01802,0.24184 -1.53169,0.34416 -0.51263,0.10232 -1.02836,0.1912 -1.54616,0.26769 -0.51676,0.0775 -1.03663,0.14159 -1.55649,0.19223 -0.5209,0.0517 -1.04283,0.0899 -1.56476,0.11576 -0.52297,0.0258 -1.04593,0.0382 -1.5689,0.0382 h -0.0496 c -0.524,0 -1.04593,-0.0124 -1.5689,-0.0382 -0.52296,-0.0258 -1.04386,-0.0641 -1.56476,-0.11576 -0.5209,-0.0506 -1.03973,-0.11472 -1.55753,-0.19223 -0.51779,-0.0765 -1.03249,-0.16537 -1.54616,-0.26769 -0.51263,-0.10232 -1.02319,-0.21704 -1.53065,-0.34416 -0.50746,-0.12713 -1.01183,-0.26562 -1.51205,-0.41755 -0.50126,-0.15193 -0.99736,-0.31626 -1.49035,-0.49196 -0.49196,-0.17673 -0.97979,-0.36483 -1.46348,-0.56534 -0.48369,-0.19947 -0.96118,-0.41134 -1.43454,-0.63562 -0.47335,-0.22324 -0.94051,-0.45888 -1.40146,-0.70486 -0.46199,-0.24702 -0.91674,-0.50437 -1.36529,-0.77308 -0.44855,-0.26872 -0.8909,-0.54881 -1.32602,-0.83923 -0.43512,-0.29042 -0.86196,-0.59221 -1.28261,-0.9033 -0.41961,-0.31213 -0.83199,-0.63356 -1.23713,-0.96532 -0.40411,-0.33176 -0.79995,-0.67283 -1.18753,-1.02423 -0.38757,-0.3514 -0.76687,-0.7121 -1.13688,-1.0821 -0.37,-0.37 -0.7307,-0.74827 -1.0821,-1.13585 -0.3514,-0.38757 -0.69247,-0.78341 -1.02423,-1.18752 -0.33176,-0.40515 -0.65422,-0.81649 -0.96532,-1.23714 -0.31212,-0.41961 -0.61288,-0.84749 -0.9033,-1.28261 -0.29145,-0.43511 -0.57051,-0.87643 -0.84026,-1.32498 -0.26872,-0.44855 -0.52606,-0.9033 -0.77308,-1.36529 -0.24701,-0.46095 -0.48162,-0.92811 -0.7059,-1.40043 -0.22324,-0.47336 -0.43511,-0.95085 -0.63562,-1.43454 -0.19947,-0.48369 -0.3886,-0.97152 -0.5643,-1.46348 -0.17674,-0.49299 -0.34004,-0.98908 -0.49196,-1.48931 -0.15193,-0.50023 -0.29146,-1.00459 -0.41858,-1.51205 -0.12713,-0.50747 -0.24185,-1.01803 -0.34417,-1.53066 -0.10232,-0.51263 -0.1912,-1.02836 -0.26768,-1.54512 -0.0775,-0.5178 -0.1416,-1.03663 -0.19224,-1.55753 -0.0517,-0.51987 -0.0899,-1.0418 -0.11575,-1.56373 -0.0258,-0.52297 -0.0382,-1.04593 -0.0382,-1.5689 v -33.39538 c 0,-0.52296 0.0124,-1.04593 0.0382,-1.56786 0.0258,-0.52193 0.0641,-1.04386 0.11575,-1.56476 0.0506,-0.51987 0.11472,-1.0387 0.19224,-1.55649 0.0765,-0.5178 0.16536,-1.0325 0.26768,-1.54513 0.10232,-0.51366 0.21704,-1.02319 0.34417,-1.53066 0.12712,-0.50746 0.26665,-1.01182 0.41858,-1.51205 0.15192,-0.50023 0.31522,-0.99735 0.49196,-1.48931 0.1757,-0.493 0.36483,-0.98082 0.5643,-1.46348 0.20051,-0.48369 0.41238,-0.96118 0.63562,-1.43454 0.22428,-0.47232 0.45889,-0.93947 0.7059,-1.40146 0.24702,-0.46096 0.50436,-0.91571 0.77308,-1.36426 0.26975,-0.44855 0.54881,-0.8909 0.84026,-1.32498 0.29042,-0.43512 0.59118,-0.863 0.9033,-1.28261 0.3111,-0.42065 0.63356,-0.83303 0.96532,-1.23714 0.33176,-0.40411 0.67283,-0.79995 1.02423,-1.18752 0.3514,-0.38757 0.7121,-0.76688 1.0821,-1.13585 0.37001,-0.37 0.74931,-0.7307 1.13688,-1.0821 0.38758,-0.3514 0.78342,-0.69247 1.18753,-1.02423 0.40514,-0.33176 0.81752,-0.65422 1.23713,-0.96532 0.42065,-0.31212 0.84749,-0.61288 1.28261,-0.9033 0.43512,-0.29042 0.87747,-0.57051 1.32602,-0.83923 0.44855,-0.26871 0.9033,-0.5271 1.36529,-0.77307 0.46095,-0.24702 0.92811,-0.48163 1.40146,-0.7059 0.47336,-0.22325 0.95085,-0.43512 1.43454,-0.63563 0.48369,-0.19947 0.97152,-0.38757 1.46348,-0.5643 0.49299,-0.1757 0.98909,-0.34003 1.49035,-0.49196 0.50022,-0.15193 1.00459,-0.29146 1.51205,-0.41858 0.50746,-0.12712 1.01802,-0.24185 1.53065,-0.34313 0.51367,-0.10232 1.02837,-0.1912 1.54616,-0.26872 0.5178,-0.0765 1.03663,-0.14056 1.55753,-0.19224 0.5209,-0.0506 1.0418,-0.0889 1.56476,-0.11472 0.52297,-0.0258 1.0449,-0.0382 1.5689,-0.0382 z m 0,0"
       fill-opacity="1"
       fill-rule="nonzero"
       id="path1"
       style="stroke-width:0.264583" />
    <path
       fill="#202e65"
       d="m 120.34071,196.25011 h -0.0475 c -18.13016,0 -32.87552,-14.74432 -32.87552,-32.86621 v -33.39331 c 0,-18.12499 14.74846,-32.86725 32.87552,-32.86725 h 0.0475 c 18.12912,0 32.87551,14.74432 32.87551,32.86725 v 33.39331 c 0,18.12396 -14.74845,32.86621 -32.87551,32.86621 z m -0.0507,-97.31396 c -17.12556,0 -31.0596,13.9299 -31.0596,31.05237 v 33.39228 c 0,17.12247 13.93404,31.05237 31.0596,31.05237 h 0.0486 c 17.12557,0 31.05961,-13.9299 31.05961,-31.05237 v -33.39228 c 0,-17.12247 -13.93404,-31.05237 -31.06064,-31.05237 z m 0,0"
       fill-opacity="1"
       fill-rule="nonzero"
       id="path2"
       style="stroke-width:0.264583" />
    <path
       fill="#1abea1"
       d="m 98.64694,141.24158 h -5.48907 v -21.32066 l 9.57254,8.16384 10.0614,-8.16384 v 21.32066 h -5.55935 v -9.8671 l -4.25917,4.09381 -4.44004,-4.09381 z m 0,0"
       fill-opacity="1"
       fill-rule="nonzero"
       id="path3"
       style="stroke-width:0.264583" />
    <path
       fill="#202e65"
       d="m 137.33295,125.02242 h -4.23643 l -1.3839,-5.03122 h 14.44667 l 1.32498,5.03122 h -4.99608 v 16.30288 l -4.92786,0.03 z m 0,0"
       fill-opacity="1"
       fill-rule="nonzero"
       id="path4"
       style="stroke-width:0.264583" />
    <path
       fill="#fc3202"
       d="m 127.91647,134.43683 c -0.093,0.95911 -0.22634,1.81384 -0.99632,1.66708 -0.44648,-0.0868 -0.91157,-0.93431 -0.81855,-1.89446 0.093,-0.95911 0.7028,-1.5782 1.15651,-1.58336 0.65836,-0.004 0.75138,0.84852 0.65836,1.81074 z m 0,0"
       fill-opacity="1"
       fill-rule="nonzero"
       id="path5"
       style="stroke-width:0.264583" />
    <path
       fill="#fc3202"
       d="m 131.66715,134.01928 c 0.92397,-0.28112 1.69499,-0.48989 1.69499,0.41755 0,0.34003 -0.42168,0.62115 -1.34359,0.90227 -0.92294,0.28112 -1.68775,0.0868 -1.83038,-0.22221 -0.20877,-0.44649 0.5581,-0.81649 1.48105,-1.09761 z m 0,0"
       fill-opacity="1"
       fill-rule="nonzero"
       id="path6"
       style="stroke-width:0.264583" />
    <path
       fill="#fc3202"
       d="m 131.7736,135.79798 c 0.6811,-0.22737 1.86966,-0.33383 1.65675,0.54881 -0.0796,0.33073 -0.55397,0.5302 -1.51826,0.56017 -0.81648,0.0248 -1.94923,0.0176 -1.9513,-0.65629 -0.002,-0.49196 1.13482,-0.22634 1.81488,-0.45269 z m 0,0"
       fill-opacity="1"
       fill-rule="nonzero"
       id="path7"
       style="stroke-width:0.264583" />
    <path
       fill="#fc3202"
       d="m 131.12971,137.2904 c 0.71004,-0.0951 1.86966,-0.33383 1.65572,0.5488 -0.0786,0.33073 -0.56638,0.72347 -1.51722,0.56018 -0.62632,-0.10646 -1.76114,-0.33383 -1.76114,-0.78755 0,-1.06557 0.90744,-0.22635 1.62471,-0.32143 z m 0,0"
       fill-opacity="1"
       fill-rule="nonzero"
       id="path8"
       style="stroke-width:0.264583" />
    <path
       fill="#fc3202"
       d="m 131.09354,139.20036 c 0,0.37621 -0.30489,0.68006 -0.6811,0.68006 -0.22634,0 -0.90743,-0.68006 -0.90743,-0.90744 0,-0.3762 0.0775,-0.45371 0.45372,-0.45371 0.3762,0 1.13481,0.30385 1.13481,0.68109 z m 0,0"
       fill-opacity="1"
       fill-rule="nonzero"
       id="path9"
       style="stroke-width:0.264583" />
    <path
       stroke-linecap="round"
       fill="none"
       stroke-linejoin="miter"
       d="m 105.90748,149.40748 h 26.90379"
       stroke="#202e65"
       stroke-width="1.81496"
       stroke-opacity="1"
       stroke-miterlimit="10"
       id="path10" />
    <path
       fill="#202e65"
       d="m 96.53854,170.05533 -2.68407,0.85679 -0.48163,-1.50378 2.67374,-0.85473 2.54352,-2.82257 0.5302,1.66295 -1.4242,1.44694 1.99884,0.34726 0.52813,1.65158 -3.68246,-0.78444 z m 0,0"
       fill-opacity="1"
       fill-rule="nonzero"
       id="path11"
       style="stroke-width:0.264583" />
    <path
       fill="#202e65"
       d="m 99.23399,175.05244 c -0.19741,0.24701 -0.44235,0.44648 -0.73278,0.59841 l -0.0341,0.0186 c -0.0134,0.006 -0.0269,0.0134 -0.0434,0.0176 l -0.0672,0.0248 -0.24598,-0.47129 -0.006,0.004 -1.35909,-2.61999 c -0.1974,0.14056 -0.33382,0.32969 -0.40824,0.56534 -0.0909,0.29455 -0.0703,0.5736 0.0651,0.83509 0.13643,0.26251 0.35244,0.44235 0.64492,0.53536 l 0.0114,0.004 0.0207,0.004 0.0176,0.005 h 0.0155 c 0,0 -0.59635,1.14309 -0.59635,1.14309 -0.24908,-0.10846 -0.46508,-0.24075 -0.64182,-0.39268 -0.23667,-0.2067 -0.42684,-0.44855 -0.57154,-0.7276 -0.1974,-0.3793 -0.28835,-0.77618 -0.27698,-1.19579 0.0114,-0.42685 0.12402,-0.81856 0.34003,-1.17719 0.21601,-0.36277 0.51986,-0.64699 0.91674,-0.8506 0.29765,-0.15399 0.60151,-0.23874 0.9126,-0.25631 0.31213,-0.0186 0.61392,0.0248 0.90744,0.12919 0.29662,0.10439 0.56224,0.25632 0.79375,0.45785 0.23875,0.20878 0.42892,0.45372 0.57154,0.73278 0.14573,0.27905 0.23358,0.5736 0.26769,0.88676 0.0341,0.30903 0.009,0.61289 -0.0765,0.91468 -0.0817,0.29662 -0.22221,0.56947 -0.42272,0.81648 z m -0.8692,-2.04639 c -0.0879,-0.17053 -0.21291,-0.30799 -0.37827,-0.41238 -0.10439,-0.062 -0.22945,-0.11162 -0.37517,-0.14366 l 0.77411,1.49345 c 0.0568,-0.13849 0.0889,-0.26768 0.0971,-0.38861 0.009,-0.19533 -0.031,-0.3762 -0.11989,-0.54673 z m 0,0"
       fill-opacity="1"
       fill-rule="nonzero"
       id="path12"
       style="stroke-width:0.264583" />
    <path
       fill="#202e65"
       d="m 98.65831,177.25695 c -0.0455,0.38137 0.0517,0.72657 0.29456,1.03457 0.25218,0.32246 0.47439,0.40824 0.66249,0.25838 0.10025,-0.0765 0.10232,-0.22428 0.009,-0.43719 -0.0703,-0.14986 -0.17674,-0.3886 -0.3204,-0.71933 -0.11575,-0.26769 -0.15606,-0.54054 -0.11989,-0.81649 0.0362,-0.27285 0.21498,-0.53537 0.53744,-0.78755 0.24701,-0.19533 0.50436,-0.29662 0.77411,-0.30799 0.26975,-0.009 0.524,0.0537 0.76171,0.19017 0.24598,0.13849 0.46302,0.32866 0.65423,0.57154 0.10852,0.13643 0.1974,0.29249 0.27181,0.46302 0.0724,0.19017 0.12299,0.37207 0.14987,0.54881 0.03,0.19017 0.0382,0.37207 0.0269,0.54673 l -1.0573,-0.12919 c -0.006,-0.27492 -0.0899,-0.5147 -0.24908,-0.71933 -0.19327,-0.24495 -0.35864,-0.31316 -0.49506,-0.20671 -0.12196,0.0982 -0.1385,0.25631 -0.0455,0.47646 0.10438,0.24288 0.21187,0.48369 0.32452,0.7214 0.11783,0.26768 0.16123,0.5333 0.12713,0.80098 -0.0341,0.26976 -0.21498,0.53537 -0.54467,0.79375 -0.24495,0.19327 -0.50746,0.29456 -0.78652,0.30386 -0.28422,0.0114 -0.55397,-0.0568 -0.81235,-0.20567 -0.26355,-0.14573 -0.48783,-0.3359 -0.67179,-0.56947 -0.15503,-0.19534 -0.27699,-0.38344 -0.37001,-0.56741 -0.0951,-0.1788 -0.16123,-0.36484 -0.19947,-0.55811 -0.0413,-0.1974 -0.0661,-0.41754 -0.0703,-0.66456 l 1.15032,-0.0227 z m 0,0"
       fill-opacity="1"
       fill-rule="nonzero"
       id="path13"
       style="stroke-width:0.264583" />
    <path
       fill="#202e65"
       d="m 104.18562,182.48144 1.56993,-2.14561 1.11104,0.81132 -1.56993,2.14664 c -0.22014,0.33797 -0.20153,0.60772 0.0527,0.80719 l 0.061,0.0455 c 0.28836,0.1974 0.57155,0.10439 0.8506,-0.27699 l 1.51102,-2.06189 1.10794,0.81029 -1.51102,2.06189 c -0.73587,1.00252 -1.63194,1.16065 -2.69337,0.46922 l -0.062,-0.0455 c -0.38965,-0.31936 -0.64389,-0.65525 -0.76378,-1.00459 -0.36794,-0.007 -0.76275,-0.14779 -1.18753,-0.42168 l -0.061,-0.0455 c -0.97978,-0.80098 -1.10277,-1.70429 -0.36793,-2.70888 l 1.50895,-2.06189 1.10794,0.80926 -1.50895,2.06292 c -0.27905,0.38034 -0.28112,0.678 -0.007,0.89297 l 0.062,0.0455 c 0.26768,0.1819 0.52813,0.11575 0.78651,-0.19534 z m 0,0"
       fill-opacity="1"
       fill-rule="nonzero"
       id="path14"
       style="stroke-width:0.264583" />
    <path
       fill="#202e65"
       d="m 110.47258,183.21835 -1.94924,3.94084 -1.22783,-0.60565 1.94717,-3.93877 1.22783,0.60358 z m 0.31109,-0.82786 c -0.10439,0.0682 -0.21808,0.10645 -0.3452,0.11576 -0.12712,0.0114 -0.24908,-0.0134 -0.36794,-0.0703 -0.11782,-0.0589 -0.21084,-0.1385 -0.27595,-0.24288 -0.0682,-0.10646 -0.10749,-0.22221 -0.11575,-0.34934 -0.009,-0.13125 0.0155,-0.25424 0.0724,-0.37 0.0589,-0.11782 0.13849,-0.21084 0.24494,-0.28112 0.11059,-0.0703 0.22635,-0.10852 0.3514,-0.11782 0.12299,-0.009 0.24288,0.0155 0.3607,0.0724 0.11783,0.0589 0.21084,0.14056 0.28112,0.24494 0.0661,0.10439 0.10439,0.22015 0.11369,0.34934 0.009,0.12505 -0.0155,0.24804 -0.0744,0.36587 -0.061,0.12195 -0.14263,0.21704 -0.24494,0.28525 z m 0,0"
       fill-opacity="1"
       fill-rule="nonzero"
       id="path15"
       style="stroke-width:0.264583" />
    <path
       fill="#202e65"
       d="m 108.01071,187.36693 c 0.21601,0.093 0.39067,0.14986 0.524,0.17053 0.13643,0.0248 0.25632,0 0.36587,-0.0775 0.10645,-0.0724 0.20154,-0.20774 0.28732,-0.40824 l 1.5906,-3.699 1.25781,0.5395 -1.64332,3.82199 c -0.12712,0.29559 -0.26355,0.53744 -0.40824,0.73071 -0.14986,0.19016 -0.31729,0.32659 -0.50126,0.40617 -0.19327,0.0879 -0.41548,0.11782 -0.66766,0.0858 -0.25425,-0.0248 -0.55294,-0.11059 -0.9002,-0.26045 z m 4.31292,-4.30671 c -0.0992,0.0724 -0.21084,0.11782 -0.33797,0.13332 -0.12712,0.0186 -0.24908,0 -0.37,-0.0517 -0.11989,-0.0527 -0.21704,-0.12712 -0.29042,-0.22737 -0.0744,-0.10439 -0.11782,-0.21808 -0.13333,-0.3421 -0.0155,-0.13229 0.002,-0.25632 0.0548,-0.37517 0.0517,-0.11989 0.12713,-0.21704 0.22841,-0.29249 0.10646,-0.0744 0.22221,-0.11989 0.3452,-0.13539 0.12299,-0.0165 0.24288,0 0.36484,0.0537 0.12092,0.0527 0.21807,0.12919 0.29352,0.22944 0.0724,0.10025 0.11575,0.21291 0.13332,0.3421 0.0165,0.12505 -0.004,0.24804 -0.0568,0.36793 -0.0537,0.12713 -0.13125,0.22428 -0.23151,0.29766 z m 0,0"
       fill-opacity="1"
       fill-rule="nonzero"
       id="path16"
       style="stroke-width:0.264583" />
    <path
       fill="#202e65"
       d="m 117.99666,187.59844 c -0.0837,0.42685 -0.26975,0.79168 -0.5581,1.09554 -0.29042,0.30903 -0.64699,0.52917 -1.0666,0.65629 -0.41961,0.13126 -0.84646,0.15606 -1.27538,0.0744 -0.32866,-0.061 -0.63045,-0.17673 -0.9033,-0.34933 -0.27182,-0.16123 -0.50746,-0.37207 -0.70487,-0.63459 -0.19533,-0.26148 -0.33176,-0.5426 -0.40927,-0.84439 -0.0765,-0.30179 -0.0837,-0.62115 -0.0196,-0.95498 0.061,-0.32659 0.18396,-0.61908 0.37,-0.87746 0.18087,-0.25632 0.41031,-0.47026 0.68213,-0.63562 0.27698,-0.1695 0.57257,-0.28112 0.8878,-0.3359 0.32453,-0.0517 0.64595,-0.0496 0.96635,0.0114 0.31729,0.0589 0.61701,0.1726 0.90124,0.34107 l 0.0879,0.061 0.0889,0.061 0.33383,-1.77871 1.34255,0.25632 -0.72347,3.85713 z m -1.34152,-0.28319 c 0.0372,-0.1974 0.0186,-0.3855 -0.0537,-0.56947 -0.0734,-0.18604 -0.18913,-0.3421 -0.34313,-0.47439 -0.15193,-0.13126 -0.32659,-0.21291 -0.524,-0.25115 -0.1974,-0.0362 -0.39274,-0.0227 -0.58497,0.0424 -0.19327,0.0661 -0.35657,0.1726 -0.493,0.31833 -0.13332,0.14263 -0.22014,0.31316 -0.25631,0.51056 -0.0568,0.30076 0.007,0.57981 0.19327,0.83923 0.18087,0.25838 0.42374,0.41444 0.7307,0.47335 0.30386,0.0568 0.58498,0 0.84853,-0.17673 0.26562,-0.17467 0.42581,-0.41031 0.48266,-0.7121 z m 0,0"
       fill-opacity="1"
       fill-rule="nonzero"
       id="path17"
       style="stroke-width:0.264583" />
    <path
       fill="#202e65"
       d="m 120.06992,189.64689 c -0.39687,-0.19016 -0.71416,-0.46198 -0.95704,-0.81132 -0.24495,-0.35243 -0.37414,-0.75137 -0.39068,-1.19579 -0.0114,-0.33383 0.0434,-0.64905 0.16847,-0.94154 0.12505,-0.29249 0.29972,-0.54881 0.52606,-0.76895 0.22945,-0.22221 0.493,-0.39687 0.79169,-0.52193 0.30489,-0.12506 0.62011,-0.19534 0.94154,-0.20671 0.32763,-0.0114 0.64492,0.0341 0.95808,0.13643 0.30386,0.0971 0.58084,0.25218 0.82786,0.45785 0.24494,0.20878 0.43821,0.45372 0.58084,0.73588 0.14573,0.28318 0.22221,0.59117 0.23668,0.92707 0.0114,0.34003 -0.0434,0.65319 -0.16433,0.94155 -0.11989,0.29042 -0.29662,0.55087 -0.52813,0.77824 -0.23565,0.22635 -0.4992,0.39894 -0.79169,0.52193 -0.29559,0.12713 -0.61081,0.19741 -0.94671,0.21084 -0.43718,0.0155 -0.85266,-0.0724 -1.24954,-0.26355 z m 0.39274,-1.2795 c 0.23358,0.21187 0.50643,0.31316 0.81442,0.30179 0.3111,-0.0114 0.57671,-0.13126 0.79479,-0.3576 0.22014,-0.22945 0.32453,-0.49506 0.31522,-0.80099 -0.007,-0.19947 -0.0662,-0.38344 -0.1788,-0.54674 -0.11162,-0.16536 -0.25941,-0.29559 -0.44028,-0.3886 -0.17777,-0.093 -0.36794,-0.1354 -0.57257,-0.12919 -0.19741,0.007 -0.38344,0.0641 -0.55604,0.17053 -0.17157,0.10645 -0.31006,0.24494 -0.41031,0.41754 -0.0992,0.1726 -0.1447,0.35864 -0.1385,0.55811 0.0114,0.30592 0.13436,0.56431 0.37207,0.77515 z m 0,0"
       fill-opacity="1"
       fill-rule="nonzero"
       id="path18"
       style="stroke-width:0.264583" />
    <path
       fill="#202e65"
       d="m 128.70816,185.31228 c 0.1974,0.24701 0.33589,0.53123 0.41754,0.84852 l 0.009,0.0362 c 0.004,0.0134 0.007,0.0289 0.007,0.0475 l 0.008,0.0724 -0.5147,0.13229 v 0.008 c 0,0 -2.85667,0.73484 -2.85667,0.73484 0.093,0.22531 0.24495,0.39998 0.45889,0.524 0.26768,0.1571 0.54363,0.19741 0.82785,0.12299 0.28836,-0.0744 0.51057,-0.24288 0.66663,-0.50849 l 0.007,-0.0114 0.009,-0.0196 0.008,-0.0165 0.005,-0.0134 0.97772,0.83715 c -0.1633,0.21808 -0.33796,0.39895 -0.52607,0.53744 -0.25425,0.18397 -0.5333,0.31523 -0.83716,0.39274 -0.41341,0.10645 -0.82165,0.10645 -1.22783,0 -0.41548,-0.10645 -0.77204,-0.30386 -1.07073,-0.59635 -0.30489,-0.29042 -0.51263,-0.65112 -0.62425,-1.08417 -0.0837,-0.32453 -0.0971,-0.63975 -0.0434,-0.94671 0.0527,-0.30799 0.16329,-0.59428 0.32969,-0.85473 0.16743,-0.26768 0.37621,-0.48989 0.62322,-0.66972 0.25631,-0.18294 0.53847,-0.31523 0.84232,-0.39481 0.30386,-0.0786 0.61289,-0.0971 0.92295,-0.061 0.30902,0.0362 0.59944,0.12919 0.87436,0.27905 0.26975,0.14573 0.5054,0.3452 0.70073,0.59428 z m -2.19108,0.38757 c -0.18604,0.0475 -0.34727,0.14056 -0.48783,0.27698 -0.0847,0.0858 -0.15916,0.19741 -0.22531,0.33383 l 1.62884,-0.41961 c -0.12195,-0.0868 -0.24184,-0.14779 -0.35553,-0.18397 -0.1881,-0.0527 -0.37414,-0.0548 -0.56017,-0.007 z m 0,0"
       fill-opacity="1"
       fill-rule="nonzero"
       id="path19"
       style="stroke-width:0.264583" />
    <path
       fill="#202e65"
       d="m 130.98605,184.10511 c -0.30799,0.1633 -0.36277,0.45579 -0.15813,0.88264 l 1.11621,2.34301 -1.2392,0.59014 -1.11621,-2.34301 c -0.53743,-1.12758 -0.24908,-1.99161 0.86713,-2.59312 l 0.0703,-0.0341 c 1.16789,-0.48576 2.02158,-0.16537 2.55902,0.96428 l 1.11621,2.34301 -1.23817,0.59015 -1.11621,-2.34301 c -0.20257,-0.42685 -0.46612,-0.56948 -0.78548,-0.43408 l -0.0703,0.0341 z m 0,0"
       fill-opacity="1"
       fill-rule="nonzero"
       id="path20"
       style="stroke-width:0.264583" />
    <path
       fill="#202e65"
       d="m 137.70089,180.33997 1.79007,2.02572 -1.03249,0.91157 -1.79008,-2.02572 c -0.28422,-0.28525 -0.5519,-0.32866 -0.80098,-0.12196 l -0.0568,0.0517 c -0.25425,0.24082 -0.22428,0.53537 0.0889,0.88987 l 1.72186,1.9482 -1.03043,0.90951 -1.72186,-1.9482 c -0.82372,-0.93225 -0.78548,-1.84175 0.11782,-2.73162 l 0.0589,-0.0517 c 0.39688,-0.31109 0.77825,-0.48989 1.14619,-0.53123 0.0837,-0.35864 0.30592,-0.7121 0.66456,-1.06867 l 0.0568,-0.0517 c 0.99322,-0.78548 1.90169,-0.7121 2.72541,0.22014 l 1.72186,1.94614 -1.02836,0.9095 -1.72186,-1.9482 c -0.31316,-0.3545 -0.60358,-0.41961 -0.87126,-0.19741 l -0.0568,0.0517 c -0.23358,0.22221 -0.22635,0.49196 0.0227,0.81029 z m 0,0"
       fill-opacity="1"
       fill-rule="nonzero"
       id="path21"
       style="stroke-width:0.264583" />
    <path
       fill="#202e65"
       d="m 142.24738,174.03648 c 0.31109,0.0589 0.60151,0.18293 0.87127,0.37103 l 0.032,0.0227 c 0.0114,0.009 0.0227,0.0186 0.0362,0.03 l 0.0548,0.0475 -0.30386,0.43512 0.006,0.005 -1.68982,2.42053 c 0.21497,0.10852 0.44648,0.14262 0.68936,0.0992 0.30386,-0.0568 0.54054,-0.20361 0.71004,-0.44649 0.17053,-0.24494 0.22944,-0.51676 0.17466,-0.81855 v -0.0114 c 0,0 -0.009,-0.0207 -0.009,-0.0207 v -0.0186 c 0,0 -0.008,-0.0134 -0.008,-0.0134 h 1.28881 c 0.0176,0.26975 0.002,0.52193 -0.0475,0.75137 -0.0734,0.30386 -0.2005,0.58498 -0.3793,0.84336 -0.24495,0.34933 -0.55397,0.61702 -0.93018,0.80099 -0.38344,0.1881 -0.78341,0.26975 -1.20096,0.24494 -0.41961,-0.0227 -0.81442,-0.16123 -1.17925,-0.41548 -0.27492,-0.19017 -0.4899,-0.42168 -0.64906,-0.68936 -0.16123,-0.26975 -0.26355,-0.5581 -0.30592,-0.86196 -0.0486,-0.31316 -0.0341,-0.61702 0.0382,-0.91674 0.0744,-0.30593 0.20153,-0.58911 0.38343,-0.84853 0.17881,-0.25838 0.40101,-0.47336 0.66043,-0.64595 0.25631,-0.1726 0.53743,-0.29249 0.84646,-0.35657 0.29869,-0.0651 0.60771,-0.0682 0.91881,-0.006 z m -1.41077,1.71876 c -0.10955,0.15709 -0.17259,0.33383 -0.1912,0.52606 -0.006,0.12092 0.009,0.25425 0.0455,0.39998 l 0.96222,-1.37976 c -0.14986,0.0134 -0.27906,0.0455 -0.39068,0.093 -0.17673,0.0837 -0.31936,0.20257 -0.42891,0.35863 z m 0,0"
       fill-opacity="1"
       fill-rule="nonzero"
       id="path22"
       style="stroke-width:0.264583" />
    <path
       fill="#202e65"
       d="m 144.33511,169.21817 c 0.31523,-0.009 0.62632,0.0496 0.93017,0.17466 l 0.0362,0.0155 c 0.0134,0.004 0.0279,0.0134 0.0413,0.0227 l 0.063,0.0362 -0.2036,0.49196 0.008,0.005 -1.12758,2.72645 c 0.23668,0.0589 0.46819,0.0434 0.69453,-0.0517 0.28629,-0.12092 0.48369,-0.31832 0.59635,-0.59014 0.11369,-0.27492 0.11162,-0.55397 -0.006,-0.83716 l -0.005,-0.0114 -0.0103,-0.0186 -0.007,-0.0155 -0.009,-0.0134 1.25677,-0.27905 c 0.0775,0.26045 0.11575,0.50849 0.11575,0.74414 -0.006,0.31316 -0.0682,0.61495 -0.1881,0.90537 -0.1633,0.39377 -0.40824,0.7214 -0.73484,0.98185 -0.33383,0.26768 -0.7059,0.43305 -1.12138,0.49713 -0.41444,0.0703 -0.82992,0.0176 -1.24126,-0.15193 -0.308,-0.12713 -0.56948,-0.30489 -0.78239,-0.5333 -0.216,-0.22945 -0.3762,-0.48783 -0.48782,-0.77618 -0.11369,-0.29456 -0.16743,-0.59428 -0.16123,-0.90021 0.007,-0.31522 0.0703,-0.61908 0.1912,-0.9095 0.11989,-0.29042 0.28732,-0.5488 0.5054,-0.77618 0.2129,-0.22428 0.46302,-0.40101 0.74931,-0.53123 0.27905,-0.1292 0.57774,-0.19638 0.89606,-0.20361 z m -1.00562,1.98437 c -0.0724,0.17674 -0.0971,0.36277 -0.0724,0.55604 0.0186,0.11989 0.0641,0.24495 0.13125,0.37827 l 0.64286,-1.55339 c -0.14366,0.0455 -0.26355,0.10438 -0.3607,0.17673 -0.15503,0.11782 -0.26769,0.26769 -0.34107,0.44442 z m 0,0"
       fill-opacity="1"
       fill-rule="nonzero"
       id="path23"
       style="stroke-width:0.264583" />
    <path
       fill="#202e65"
       d="m 145.72624,168.6642 -4.12275,-0.78962 0.42168,-1.71462 4.01836,1.20716 -0.31936,1.29914 z m 0.78755,0.21084 c -0.10025,-0.0992 -0.1664,-0.21498 -0.20257,-0.34417 -0.0382,-0.13436 -0.0403,-0.26562 -0.009,-0.39481 0.032,-0.13126 0.0961,-0.24494 0.1912,-0.34726 0.0971,-0.0971 0.21084,-0.16537 0.3421,-0.20878 0.12919,-0.0434 0.25941,-0.0475 0.39274,-0.0134 0.22221,0.0548 0.38757,0.1726 0.49712,0.3514 0.11059,0.18397 0.14056,0.37931 0.0909,0.58808 -0.0341,0.13746 -0.0982,0.25632 -0.19327,0.35347 -0.0951,0.10025 -0.21084,0.17053 -0.34726,0.2067 -0.13849,0.0362 -0.27699,0.0382 -0.41548,0.004 -0.13539,-0.0341 -0.25115,-0.0971 -0.34416,-0.19533 z m 0,0"
       fill-opacity="1"
       fill-rule="nonzero"
       id="path24"
       style="stroke-width:0.264583" />
    <path
       fill="#fc3202"
       d="m 114.9829,120.14519 v 20.81114 c 0,0.15606 0.12712,0.28525 0.28628,0.28525 h 5.10047 c 0.15709,0 0.28628,-0.12712 0.28628,-0.28525 v -16.06517 c 0,-0.14573 0.11059,-0.26975 0.25425,-0.28422 4.41937,-0.43719 6.30556,2.20968 6.94945,3.49436 0.12092,0.23978 0.25425,0.47335 0.40204,0.70073 l 0.52193,0.81132 c 0.22014,0.34313 1.89653,0.0434 2.29134,-0.15606 0.0114,-0.007 0.0227,-0.0134 0.0341,-0.0207 l 1.9699,-1.34669 c 0.0992,-0.0682 0.14676,-0.19534 0.11576,-0.31316 -1.3777,-4.9134 -5.59759,-7.19853 -9.69864,-7.58403 -1.06556,-0.0992 -2.1549,-0.154 -3.18326,-0.1788 -2.91559,-0.0724 -5.33611,0.0889 -5.33611,0.0889 l 0.004,0.0475 z m 0,0"
       fill-opacity="1"
       fill-rule="nonzero"
       id="path25"
       style="stroke-width:0.264583" />
    <path
       fill="#ffc300"
       d="m 133.30736,131.41272 c 0.28215,-0.15193 0.73587,-0.3793 0.96221,-0.83302 0.36587,-0.72967 -0.22634,-0.90641 -0.45372,-0.68006 -0.14469,0.14469 -0.47645,0.38344 -0.76894,0.56017 -0.13849,-0.10645 0.0207,-0.25425 0.0889,-0.33383 0.12609,-0.14883 0.18603,-0.1788 0.22634,-0.22634 0.44959,-0.51677 0.7121,-0.92294 0.62219,-1.2206 -0.0775,-0.25115 -0.38654,-0.3607 -0.62219,-0.24288 -0.50126,0.25011 -1.17512,1.16169 -2.6665,1.99471 -2.14561,1.19683 -2.16421,-1.42524 -3.07165,-0.74414 -0.6811,0.51056 -0.16123,1.80351 0.0661,2.25723 0.12712,0.25114 0.44648,0.44855 0.50333,0.72553 0.63562,3.02411 -0.83096,4.038 -1.47691,3.82199 -0.29766,-0.0992 -0.50643,-0.28318 -0.64906,-0.45992 -0.14056,-0.17466 -0.40411,-0.20877 -0.58291,-0.0754 -0.98495,0.74001 -3.47679,0.75551 -4.47725,0.73071 -0.14469,-0.005 -0.27181,-0.0796 -0.34933,-0.19017 v -7.3887 c 0,1.56477 -1.27021,2.83601 -2.836,2.83601 -1.5658,0 -2.836,-1.27124 -2.836,-2.83601 v 12.1357 h 5.672 c 1.57717,-0.0289 3.07268,-0.12713 3.84163,-0.22841 3.40134,-0.44752 4.23126,-1.32292 4.42867,-1.66088 0.32659,-0.30179 0.12712,-2.18695 0.69453,-3.67006 0.21807,-0.55191 0.47232,-1.048 0.72657,-1.42937 0.30386,-0.23772 0.81649,-0.40411 1.88102,-0.72141 2.2686,-0.68006 2.13424,-2.04122 1.81488,-2.04122 -0.22738,0 -0.6811,0.45372 -0.90744,0.45372 -0.0868,0 -0.10645,-0.0641 -0.10025,-0.14366 0.0134,-0.16536 0.12712,-0.30385 0.27285,-0.3824 z m 0,0"
       fill-opacity="1"
       fill-rule="nonzero"
       id="path26"
       style="stroke-width:0.264583" />
  </g>
</svg>
