<?xml version="1.0" encoding="UTF-8" standalone="no"?>
<svg
   width="361.4874"
   height="123.13096"
   id="screenshot-1e987199-43c8-8009-8005-f8e6a722a888"
   fill="none"
   version="1.1"
   sodipodi:docname="splash-logo.svg"
   inkscape:version="1.4 (e7c3feb100, 2024-10-09)"
   xmlns:inkscape="http://www.inkscape.org/namespaces/inkscape"
   xmlns:sodipodi="http://sodipodi.sourceforge.net/DTD/sodipodi-0.dtd"
   xmlns="http://www.w3.org/2000/svg"
   xmlns:svg="http://www.w3.org/2000/svg">
  <defs
     id="defs2" />
  <sodipodi:namedview
     id="namedview1"
     pagecolor="#ffffff"
     bordercolor="#000000"
     borderopacity="0.25"
     inkscape:showpageshadow="2"
     inkscape:pageopacity="0.0"
     inkscape:pagecheckerboard="0"
     inkscape:deskcolor="#d1d1d1"
     inkscape:zoom="1.0745593"
     inkscape:cx="205.2004"
     inkscape:cy="121.91044"
     inkscape:window-width="940"
     inkscape:window-height="1003"
     inkscape:window-x="965"
     inkscape:window-y="62"
     inkscape:window-maximized="1"
     inkscape:current-layer="shape-1e987199-43c8-8009-8005-f8e6a722a888">
    <inkscape:page
       x="0"
       y="0"
       width="361.4874"
       height="123.13096"
       id="page1"
       margin="0"
       bleed="0" />
  </sodipodi:namedview>
  <style
     id="style1">@font-face {
    font-family: 'sourcesanspro';
    font-style: normal;
    font-weight: 900;
    font-display: block;
    src: url(https://design.penpot.app/fonts/sourcesanspro-black.woff) format('woff');
  }</style>
  <g
     id="shape-1e987199-43c8-8009-8005-f8e6a722a888">
    <g
       class="text-container"
       id="shape-1e987199-43c8-8009-8005-f8e4e2239241"
       style="fill:#ffffff">
      <defs
         id="defs1">
        <pattern
           patternUnits="userSpaceOnUse"
           x="30"
           y="26"
           width="337.078"
           height="102"
           id="fill-0-render-2-0">
          <path
             id="rect1"
             d="M 0,0 H 337.078 V 102 H 0 Z" />
        </pattern>
      </defs>
      <path
         d="m 50.520651,54.442958 q 9.405298,0 14.206604,2.88 4.801306,2.88 4.801306,10.152 0,2.88 -0.855027,5.256 -0.855027,2.376 -2.49931,3.888 -1.578512,1.512 -3.880508,1.944 v 0.36 q 2.367768,0.504 4.275136,1.8 1.907368,1.296 3.025481,3.744 1.118112,2.448 1.118112,6.48 0,4.68 -2.104682,8.064 -2.038911,3.312002 -5.919419,5.112002 -3.880507,1.728 -9.207984,1.728 H 35.919418 V 54.442958 Z m 1.118112,20.376 q 4.340907,0 5.98519,-1.512 1.710054,-1.512 1.710054,-4.392 0,-2.952 -1.973139,-4.248 -1.97314,-1.296 -6.248275,-1.296 h -5.261706 v 11.448 z m -5.787876,8.64 v 13.392 h 6.511361 q 4.472449,0 6.248275,-1.872 1.775825,-1.944 1.775825,-5.112 0,-1.944 -0.789256,-3.384 -0.723484,-1.44 -2.565081,-2.232 -1.841597,-0.792 -4.99862,-0.792 z m 66.429093,-16.92 v 39.312002 h -7.49793 l -1.31543,-5.04 h -0.52617 q -1.11811,2.016 -2.89394,3.312 -1.710054,1.224 -3.814736,1.8 -2.104682,0.648 -4.340907,0.648 -3.814736,0 -6.708674,-1.512 -2.893938,-1.512 -4.472449,-4.68 -1.578512,-3.168002 -1.578512,-8.208002 v -25.632 h 9.799926 v 22.968 q 0,4.176 1.381198,6.336 1.381198,2.16 4.406678,2.16 3.025481,0 4.669764,-1.512 1.710052,-1.512 2.367762,-4.392 0.72349,-2.88 0.72349,-7.056 v -18.504 z m 21.63873,40.032002 q -5.98519,0 -9.79993,-5.112 -3.74896,-5.184002 -3.74896,-15.192002 0,-10.08 3.81474,-15.264 3.81473,-5.184 9.99724,-5.184 2.56508,0 4.53822,0.792 1.97314,0.72 3.35433,2.016 1.44697,1.296 2.43354,2.952 h 0.32886 q -0.19731,-1.152 -0.4604,-3.312 -0.26309,-2.232 -0.26309,-4.536 v -12.6 h 9.79993 v 54.720002 h -7.49793 l -1.90737,-5.112 h -0.39463 q -0.92079,1.584 -2.36776,2.952 -1.3812,1.296 -3.28857,2.088 -1.90737,0.792 -4.53822,0.792 z m 3.42011,-8.568002 q 4.07782,0 5.7221,-2.592 1.64429,-2.664 1.71006,-7.92 v -1.152 q 0,-5.76 -1.64428,-8.784 -1.57852,-3.024 -5.91942,-3.024 -3.2228,0 -5.06439,3.096 -1.8416,3.024 -1.8416,8.784 0,5.76 1.8416,8.712 1.84159,2.88 5.19593,2.88 z m 38.2131,8.568002 q -5.98519,0 -9.79993,-5.112 -3.74896,-5.184002 -3.74896,-15.192002 0,-10.08 3.81474,-15.264 3.81473,-5.184 9.99724,-5.184 2.56508,0 4.53822,0.792 1.97314,0.72 3.35433,2.016 1.44697,1.296 2.43354,2.952 h 0.32886 q -0.19732,-1.152 -0.4604,-3.312 -0.26309,-2.232 -0.26309,-4.536 v -12.6 h 9.79993 v 54.720002 h -7.49793 l -1.90737,-5.112 h -0.39463 q -0.92079,1.584 -2.36776,2.952 -1.3812,1.296 -3.28857,2.088 -1.90737,0.792 -4.53822,0.792 z m 3.42011,-8.568002 q 4.07782,0 5.7221,-2.592 1.64429,-2.664 1.71006,-7.92 v -1.152 q 0,-5.76 -1.64429,-8.784 -1.57851,-3.024 -5.91941,-3.024 -3.2228,0 -5.0644,3.096 -1.84159,3.024 -1.84159,8.784 0,5.76 1.84159,8.712 1.8416,2.88 5.19594,2.88 z m 38.21308,8.568002 q -5.98519,0 -9.79992,-5.112 -3.74897,-5.184002 -3.74897,-15.192002 0,-10.08 3.81474,-15.264 3.81474,-5.184 9.99724,-5.184 2.56508,0 4.53822,0.792 1.97314,0.72 3.35434,2.016 1.44697,1.296 2.43354,2.952 h 0.32885 q -0.19731,-1.152 -0.4604,-3.312 -0.26308,-2.232 -0.26308,-4.536 v -12.6 h 9.79992 v 54.720002 h -7.49793 l -1.90736,-5.112 h -0.39463 q -0.9208,1.584 -2.36777,2.952 -1.3812,1.296 -3.28857,2.088 -1.90736,0.792 -4.53822,0.792 z m 3.42011,-8.568002 q 4.07782,0 5.72211,-2.592 1.64428,-2.664 1.71005,-7.92 v -1.152 q 0,-5.76 -1.64428,-8.784 -1.57851,-3.024 -5.91942,-3.024 -3.22279,0 -5.06439,3.096 -1.8416,3.024 -1.8416,8.784 0,5.76 1.8416,8.712 1.8416,2.88 5.19593,2.88 z m 21.7045,-31.464 h 10.72073 l 6.77444,22.104 q 0.32886,1.08 0.52617,2.16 0.26309,1.08 0.39463,2.232 0.19732,1.152 0.26309,2.448 h 0.19731 q 0.19731,-1.872 0.52617,-3.528 0.39463,-1.728 0.85503,-3.312 l 6.6429,-22.104 h 10.52341 l -15.19317,44.352002 q -1.3812,4.032 -3.61742,6.768 -2.17046,2.736 -5.0644,4.104 -2.89393,1.368 -6.31404,1.368 -1.64429,0 -2.89394,-0.216 -1.18388,-0.144 -2.10468,-0.36 v -8.496 q 0.72348,0.144 1.71005,0.288 1.05234,0.144 2.17046,0.144 2.03891,0 3.48588,-0.936 1.51274,-0.936 2.49931,-2.592 0.98656,-1.584 1.57851,-3.456 l 0.59194,-1.944 z m 72.87465,39.312002 h -32.81989 v -7.560002 l 11.77307,-13.032 q 3.55165,-4.032 5.7221,-6.696 2.17045,-2.736 3.15702,-4.896 0.98657,-2.232 0.98657,-4.752 0,-3.096 -1.57851,-4.608 -1.51274,-1.512 -4.14359,-1.512 -2.69663,0 -5.26171,1.368 -2.56508,1.368 -5.39324,3.888 l -5.39325,-6.984 q 2.03891,-1.944 4.27513,-3.6 2.302,-1.656 5.26171,-2.664 3.02548,-1.08 7.23484,-1.08 4.604,0 7.89256,1.872 3.35434,1.8 5.13016,4.968 1.8416,3.096 1.8416,7.056 0,4.248 -1.57851,7.776 -1.51274,3.528 -4.47245,6.984 -2.89394,3.456 -7.03753,7.632 l -6.05096,6.192 v 0.504 h 20.45488 z m 46.30304,-18.144002 q 0,5.328 -2.17045,9.648 -2.10468,4.248002 -6.44559,6.768002 -4.27514,2.448 -10.85227,2.448 -9.33952,0 -14.2066,-5.184 -4.86708,-5.256002 -4.86708,-13.824002 v -33.12 h 9.93147 v 31.464 q 0,6.336 2.36777,8.928 2.36776,2.592 7.03753,2.592 3.28856,0 5.32747,-1.224 2.03891,-1.224 2.95971,-3.816 0.98657,-2.592 0.98657,-6.552 v -31.392 h 9.93147 z"
         id="fills-1e987199-43c8-8009-8005-f8e4e2239241"
         style="font-weight:900;font-size:72px;font-family:sourcesanspro;dominant-baseline:ideographic;white-space:pre"
         class="fills"
         aria-label="Budddy2U" />
    </g>
    <g
       id="shape-487ad5c0-f0a5-8021-8005-f8beb3a7fe80"
       style="fill:#000000">
      <g
         id="shape-487ad5c0-f0a5-8021-8005-f8beb3a9f094">
        <path
           d="m 22.903,0.011 c -1.606,0.004 -3.324,0.362 -4.546,0.743 -0.522,0.163 -1.035,0.35 -1.535,0.562 -0.25,0.106 -0.496,0.219 -0.739,0.336 -1.216,0.587 -2.348,1.316 -3.378,2.166 -0.206,0.17 -0.407,0.343 -0.605,0.522 -0.199,0.181 -0.392,0.367 -0.58,0.554 -3.019,3.017 -4.895,7.197 -4.895,11.784 0,0.186 0.003,0.378 0.01,0.579 l 0.156,1.938 7.421,-0.229 c 0,0 -0.007,-0.029 -0.269,-1.86 -0.006,-0.146 -0.008,-0.286 -0.008,-0.428 0,-0.355 0.026,-0.721 0.071,-1.106 0.058,-0.495 0.158,-0.98 0.293,-1.459 1.111,-3.935 4.682,-6.807 9.014,-6.807 4.25,0 7.775,2.761 8.957,6.575 0.164,0.529 0.279,1.095 0.348,1.691 0.045,0.385 0.073,0.751 0.073,1.106 0,0.032 -0.013,0.168 -0.024,0.422 -0.221,5.02 -4.267,8.949 -9.354,8.949 -2.819,0 -5.531,0.506 -8.039,1.43 C 6.899,30.563 0.786,38.315 0.077,47.552 v 0.004 0.002 C 0.088,47.414 0.069,47.469 0.069,47.729 l 0.006,-0.154 c -0.02,0.265 -0.036,0.532 -0.049,0.798 v 0.006 0.006 c -0.012,0.3 -0.024,0.62 -0.024,0.962 V 53 H 4.141 27.196 V 45.694 H 9.066 7.894 c 1.208,-5.156 4.802,-9.367 9.624,-11.253 l 0.002,-0.002 c 0.072,-0.028 0.114,-0.044 0.12,-0.047 h 0.002 c 0.058,-0.022 0.146,-0.053 0.259,-0.094 l 0.004,-0.002 c 0.286,-0.103 0.565,-0.196 0.839,-0.277 l 0.016,-0.006 c 0.056,-0.017 0.098,-0.027 0.084,-0.024 0.188,-0.054 0.381,-0.107 0.582,-0.157 h 0.002 0.002 c 0.073,-0.018 0.126,-0.033 0.159,-0.041 l -0.002,0.002 c 0.164,-0.039 0.337,-0.077 0.519,-0.114 h 0.002 c 0.102,-0.02 0.173,-0.035 0.216,-0.043 0.152,-0.029 0.319,-0.056 0.501,-0.084 h 0.002 c 0.113,-0.018 0.189,-0.032 0.23,-0.038 0.143,-0.02 0.307,-0.039 0.488,-0.059 h 0.002 c 0.129,-0.014 0.214,-0.025 0.259,-0.029 0.15,-0.014 0.324,-0.026 0.519,-0.037 0.133,-0.009 0.208,-0.015 0.228,-0.016 0.254,-0.012 0.508,-0.018 0.76,-0.018 1.562,0 3.072,-0.221 4.503,-0.622 6.845,-1.924 11.917,-8.107 12.172,-15.474 v -0.002 c 0.006,-0.162 0.014,-0.355 0.014,-0.579 0,-0.29 -0.009,-0.575 -0.022,-0.852 v -0.002 -0.002 c -0.043,-0.851 -0.151,-1.685 -0.318,-2.499 -0.056,-0.27 -0.118,-0.54 -0.187,-0.807 -0.138,-0.532 -0.302,-1.055 -0.489,-1.565 V 10.949 C 38.798,10.439 38.586,9.938 38.351,9.453 37.998,8.723 37.594,8.026 37.144,7.361 36.544,6.474 35.861,5.649 35.106,4.895 34.919,4.707 34.725,4.521 34.527,4.341 34.329,4.161 34.127,3.988 33.921,3.818 32.892,2.969 31.757,2.239 30.541,1.652 30.298,1.535 30.052,1.422 29.802,1.316 29.303,1.105 28.792,0.917 28.27,0.755 27.031,0.37 25.318,-0.071 22.903,0.011 Z"
           style="fill:#13a7af;fill-opacity:1;stroke-width:1;stroke-dasharray:none"
           class="fills"
           id="fills-487ad5c0-f0a5-8021-8005-f8beb3a9f094" />
      </g>
      <g
         id="shape-487ad5c0-f0a5-8021-8005-f8beb3aa7afc">
        <path
           d="m 43.128,11.881 v 7.654 l 2.013,-0.001 h 3.285 l -5.298,0.001 v 0.001 c 0,0.117 0.006,0.233 0.009,0.35 0.015,0.754 0.081,1.507 0.198,2.252 0.031,0.2 0.067,0.398 0.106,0.595 0.144,0.727 0.337,1.444 0.576,2.146 0.082,0.239 0.169,0.475 0.261,0.71 0.259,0.662 0.561,1.308 0.903,1.932 0.126,0.23 0.258,0.457 0.395,0.68 0.35,0.57 0.735,1.119 1.152,1.643 0.202,0.255 0.411,0.506 0.627,0.749 0.386,0.427 0.793,0.833 1.221,1.218 0.061,0.062 0.123,0.123 0.185,0.184 0.214,0.19 0.432,0.374 0.656,0.553 0.289,0.216 0.584,0.423 0.886,0.62 0.308,0.23 0.623,0.451 0.946,0.66 0.147,0.089 0.297,0.173 0.447,0.258 0.738,0.414 1.505,0.771 2.297,1.069 0.004,0.002 0.009,0.004 0.013,0.005 0.068,0.026 0.136,0.05 0.205,0.075 0.859,0.306 1.741,0.542 2.639,0.705 0.042,0.008 0.084,0.015 0.126,0.023 0.938,0.163 1.888,0.246 2.84,0.248 0.316,-10e-4 0.632,-0.01 0.947,-0.029 0.088,-0.005 0.176,-0.013 0.264,-0.02 0.225,-0.016 0.45,-0.036 0.674,-0.061 0.111,-0.013 0.221,-0.028 0.331,-0.042 0.197,-0.027 0.395,-0.057 0.591,-0.09 0.124,-0.022 0.249,-0.043 0.372,-0.067 0.169,-0.034 0.338,-0.07 0.505,-0.108 0.147,-0.034 0.294,-0.065 0.439,-0.102 0.084,-0.023 0.168,-0.046 0.251,-0.07 0.488,-0.133 0.968,-0.286 1.437,-0.462 1.335,-0.499 2.588,-1.167 3.738,-1.974 0.598,-0.42 1.169,-0.875 1.706,-1.367 3.334,-3.054 5.434,-7.435 5.434,-12.284 h -7.311 c 0,5.227 -4.148,9.372 -9.378,9.372 -5.23,0 -9.377,-4.145 -9.377,-9.372 v -0.001 -7.653 z m 26.066,0 v 7.653 h 2.012 3.286 2.013 l -10e-4,-7.653 z"
           style="fill:#e53733;fill-opacity:1"
           class="fills"
           id="fills-487ad5c0-f0a5-8021-8005-f8beb3aa7afc" />
      </g>
    </g>
  </g>
</svg>
