<?xml version="1.0" encoding="UTF-8" standalone="no"?>
<svg
   width="323.27631"
   height="112.62651"
   id="screenshot-1e987199-43c8-8009-8005-f8e6a722a888"
   fill="none"
   version="1.1"
   sodipodi:docname="splash-logo.svg"
   inkscape:version="1.4 (e7c3feb100, 2024-10-09)"
   xmlns:inkscape="http://www.inkscape.org/namespaces/inkscape"
   xmlns:sodipodi="http://sodipodi.sourceforge.net/DTD/sodipodi-0.dtd"
   xmlns="http://www.w3.org/2000/svg"
   xmlns:svg="http://www.w3.org/2000/svg">
  <defs
     id="defs2" />
  <sodipodi:namedview
     id="namedview1"
     pagecolor="#ffffff"
     bordercolor="#000000"
     borderopacity="0.25"
     inkscape:showpageshadow="2"
     inkscape:pageopacity="0.0"
     inkscape:pagecheckerboard="0"
     inkscape:deskcolor="#d1d1d1"
     inkscape:zoom="1.8856579"
     inkscape:cx="76.10076"
     inkscape:cy="40.304235"
     inkscape:window-width="1890"
     inkscape:window-height="1003"
     inkscape:window-x="15"
     inkscape:window-y="62"
     inkscape:window-maximized="1"
     inkscape:current-layer="screenshot-1e987199-43c8-8009-8005-f8e6a722a888">
    <inkscape:page
       x="0"
       y="0"
       width="323.27631"
       height="112.62651"
       id="page1"
       margin="0 0 114.59094"
       bleed="0" />
  </sodipodi:namedview>
  <style
     id="style1">@font-face {
    font-family: 'sourcesanspro';
    font-style: normal;
    font-weight: 900;
    font-display: block;
    src: url(https://design.penpot.app/fonts/sourcesanspro-black.woff) format('woff');
  }</style>
  <g
     class="text-container"
     id="shape-1e987199-43c8-8009-8005-f8e4e2239241"
     transform="translate(-2.7237,-13.101124)">
    <defs
       id="defs1">
      <pattern
         patternUnits="userSpaceOnUse"
         x="30"
         y="26"
         width="295.359"
         height="102"
         id="fill-0-render-2-0">
        <rect
           width="295.359"
           height="102"
           style="fill: rgb(255, 255, 255); fill-opacity: 1;"
           id="rect1" />
      </pattern>
    </defs>
    <path
       d="m 50.514693,54.447066 q 9.402567,0 14.202479,2.879999 4.799912,2.88 4.799912,10.152 0,2.88 -0.854779,5.256 -0.854778,2.376 -2.498584,3.888 -1.578053,1.512 -3.879381,1.944 v 0.36 q 2.36708,0.504 4.273894,1.8 1.906815,1.296 3.024603,3.744 1.117787,2.448 1.117787,6.48 0,4.68 -2.104071,8.064 -2.038319,3.312005 -5.9177,5.112005 -3.879381,1.728 -9.20531,1.728 H 35.9177 V 54.447066 Z m 1.117787,20.375999 q 4.339647,0 5.983452,-1.512 1.709558,-1.512 1.709558,-4.392 0,-2.952 -1.972566,-4.248 -1.972567,-1.296 -6.246461,-1.296 h -5.260178 v 11.448 z m -5.786195,8.64 v 13.392 h 6.50947 q 4.471151,0 6.246461,-1.872 1.77531,-1.944 1.77531,-5.112 0,-1.944 -0.789027,-3.384 -0.723274,-1.44 -2.564337,-2.232 -1.841062,-0.792 -4.997168,-0.792 z m 66.409805,-16.92 v 39.312005 h -7.49576 l -1.31504,-5.04 h -0.52602 q -1.11779,2.016 -2.8931,3.312 -1.709555,1.224 -3.813626,1.8 -2.104071,0.648 -4.339646,0.648 -3.813629,0 -6.706727,-1.512 -2.893097,-1.512 -4.471151,-4.68 -1.578053,-3.168005 -1.578053,-8.208005 v -25.632 h 9.797081 v 22.968 q 0,4.176 1.380797,6.336 1.380796,2.16 4.405398,2.16 3.024603,0 4.668408,-1.512 1.709559,-1.512 2.367079,-4.392 0.72328,-2.88 0.72328,-7.056 v -18.504 z m 21.63245,40.032005 q -5.98345,0 -9.79708,-5.112 -3.74787,-5.184005 -3.74787,-15.192005 0,-10.08 3.81362,-15.264 3.81363,-5.184 9.99434,-5.184 2.56434,0 4.5369,0.792 1.97257,0.72 3.35337,2.016 1.44655,1.296 2.43283,2.952 h 0.32876 q -0.19726,-1.152 -0.46026,-3.312 -0.26301,-2.232 -0.26301,-4.536 V 51.135066 h 9.79708 v 54.720004 h -7.49576 l -1.90681,-5.112 h -0.39451 q -0.92053,1.584 -2.36708,2.952 -1.3808,1.296 -3.28761,2.088 -1.90682,0.792 -4.53691,0.792 z m 3.41912,-8.568005 q 4.07664,0 5.72044,-2.592 1.64381,-2.664 1.70956,-7.92 v -1.152 q 0,-5.76 -1.64381,-8.784 -1.57805,-3.024 -5.9177,-3.024 -3.22186,0 -5.06292,3.096 -1.84106,3.024 -1.84106,8.784 0,5.76 1.84106,8.712 1.84106,2.88 5.19443,2.88 z m 38.20199,8.568005 q -5.98345,0 -9.79708,-5.112 -3.74788,-5.184005 -3.74788,-15.192005 0,-10.08 3.81363,-15.264 3.81363,-5.184 9.99434,-5.184 2.56434,0 4.5369,0.792 1.97257,0.72 3.35337,2.016 1.44655,1.296 2.43283,2.952 h 0.32876 q -0.19726,-1.152 -0.46027,-3.312 -0.263,-2.232 -0.263,-4.536 V 51.135066 h 9.79708 v 54.720004 h -7.49576 l -1.90681,-5.112 h -0.39451 q -0.92054,1.584 -2.36708,2.952 -1.3808,1.296 -3.28762,2.088 -1.90681,0.792 -4.5369,0.792 z m 3.41912,-8.568005 q 4.07663,0 5.72044,-2.592 1.64381,-2.664 1.70956,-7.92 v -1.152 q 0,-5.76 -1.64381,-8.784 -1.57805,-3.024 -5.9177,-3.024 -3.22186,0 -5.06292,3.096 -1.84106,3.024 -1.84106,8.784 0,5.76 1.84106,8.712 1.84106,2.88 5.19443,2.88 z m 21.6982,-31.464 h 10.71761 l 6.77248,22.104 q 0.32876,1.08 0.52602,2.16 0.26301,1.08 0.39451,2.232 0.19726,1.152 0.26301,2.448 h 0.19726 q 0.19725,-1.872 0.52601,-3.528 0.39452,-1.728 0.85478,-3.312 l 6.64098,-22.104 h 10.52035 l -15.18876,44.352005 q -1.3808,4.032 -3.61637,6.768 -2.16983,2.736 -5.06292,4.104 -2.8931,1.368 -6.31222,1.368 -1.6438,0 -2.8931,-0.216 -1.18354,-0.144 -2.10407,-0.36 v -8.496 q 0.72328,0.144 1.70956,0.288 1.05204,0.144 2.16982,0.144 2.03832,0 3.48487,-0.936 1.5123,-0.936 2.49859,-2.592 0.98628,-1.584 1.57805,-3.456 l 0.59177,-1.944 z m 72.85347,39.312005 h -32.81036 v -7.560005 l 11.76965,-13.032 q 3.55062,-4.032 5.72044,-6.696 2.16983,-2.736 3.15611,-4.896 0.98628,-2.232 0.98628,-4.752 0,-3.096 -1.57805,-4.608 -1.5123,-1.512 -4.14239,-1.512 -2.69584,0 -5.26018,1.368 -2.56433,1.368 -5.39168,3.888 l -5.39168,-6.984 q 2.03832,-1.944 4.27389,-3.6 2.30133,-1.656 5.26018,-2.663999 3.0246,-1.08 7.23274,-1.08 4.60266,0 7.89027,1.871999 3.35336,1.8 5.12867,4.968 1.84107,3.096 1.84107,7.056 0,4.248 -1.57806,7.776 -1.5123,3.528 -4.47115,6.984 -2.8931,3.456 -7.03549,7.632 l -6.0492,6.192 v 0.504 h 20.44894 z m 46.2896,-18.144005 q 0,5.328 -2.16982,9.648 -2.10408,4.248005 -6.44372,6.768005 -4.2739,2.448 -10.84912,2.448 -9.33681,0 -14.20248,-5.184 -4.86566,-5.256005 -4.86566,-13.824005 V 54.447066 h 9.92858 v 31.463999 q 0,6.336 2.36708,8.928 2.36708,2.592 7.03549,2.592 3.28761,0 5.32593,-1.224 2.03832,-1.224 2.95885,-3.816 0.98628,-2.592 0.98628,-6.552 V 54.447066 h 9.92859 z"
       id="fills-1e987199-43c8-8009-8005-f8e4e2239241"
       style="font-weight:900;font-size:72px;font-family:sourcesanspro;dominant-baseline:ideographic;white-space:pre;fill:#ffffff"
       class="fills"
       aria-label="Buddy2U"
       inkscape:export-filename="splash-logo.svg"
       inkscape:export-xdpi="96"
       inkscape:export-ydpi="96" />
  </g>
  <g
     id="shape-487ad5c0-f0a5-8021-8005-f8beb3a7fe80"
     style="fill:#000000"
     transform="translate(-0.002,-0.0010578)">
    <g
       id="shape-487ad5c0-f0a5-8021-8005-f8beb3a9f094">
      <path
         d="m 22.903,0.011 c -1.606,0.004 -3.324,0.362 -4.546,0.743 -0.522,0.163 -1.035,0.35 -1.535,0.562 -0.25,0.106 -0.496,0.219 -0.739,0.336 -1.216,0.587 -2.348,1.316 -3.378,2.166 -0.206,0.17 -0.407,0.343 -0.605,0.522 -0.199,0.181 -0.392,0.367 -0.58,0.554 -3.019,3.017 -4.895,7.197 -4.895,11.784 0,0.186 0.003,0.378 0.01,0.579 l 0.156,1.938 7.421,-0.229 c 0,0 -0.007,-0.029 -0.269,-1.86 -0.006,-0.146 -0.008,-0.286 -0.008,-0.428 0,-0.355 0.026,-0.721 0.071,-1.106 0.058,-0.495 0.158,-0.98 0.293,-1.459 1.111,-3.935 4.682,-6.807 9.014,-6.807 4.25,0 7.775,2.761 8.957,6.575 0.164,0.529 0.279,1.095 0.348,1.691 0.045,0.385 0.073,0.751 0.073,1.106 0,0.032 -0.013,0.168 -0.024,0.422 -0.221,5.02 -4.267,8.949 -9.354,8.949 -2.819,0 -5.531,0.506 -8.039,1.43 C 6.899,30.563 0.786,38.315 0.077,47.552 v 0.004 0.002 C 0.088,47.414 0.069,47.469 0.069,47.729 l 0.006,-0.154 c -0.02,0.265 -0.036,0.532 -0.049,0.798 v 0.006 0.006 c -0.012,0.3 -0.024,0.62 -0.024,0.962 V 53 H 4.141 27.196 V 45.694 H 9.066 7.894 c 1.208,-5.156 4.802,-9.367 9.624,-11.253 l 0.002,-0.002 c 0.072,-0.028 0.114,-0.044 0.12,-0.047 h 0.002 c 0.058,-0.022 0.146,-0.053 0.259,-0.094 l 0.004,-0.002 c 0.286,-0.103 0.565,-0.196 0.839,-0.277 l 0.016,-0.006 c 0.056,-0.017 0.098,-0.027 0.084,-0.024 0.188,-0.054 0.381,-0.107 0.582,-0.157 h 0.002 0.002 c 0.073,-0.018 0.126,-0.033 0.159,-0.041 l -0.002,0.002 c 0.164,-0.039 0.337,-0.077 0.519,-0.114 h 0.002 c 0.102,-0.02 0.173,-0.035 0.216,-0.043 0.152,-0.029 0.319,-0.056 0.501,-0.084 h 0.002 c 0.113,-0.018 0.189,-0.032 0.23,-0.038 0.143,-0.02 0.307,-0.039 0.488,-0.059 h 0.002 c 0.129,-0.014 0.214,-0.025 0.259,-0.029 0.15,-0.014 0.324,-0.026 0.519,-0.037 0.133,-0.009 0.208,-0.015 0.228,-0.016 0.254,-0.012 0.508,-0.018 0.76,-0.018 1.562,0 3.072,-0.221 4.503,-0.622 6.845,-1.924 11.917,-8.107 12.172,-15.474 v -0.002 c 0.006,-0.162 0.014,-0.355 0.014,-0.579 0,-0.29 -0.009,-0.575 -0.022,-0.852 v -0.002 -0.002 c -0.043,-0.851 -0.151,-1.685 -0.318,-2.499 -0.056,-0.27 -0.118,-0.54 -0.187,-0.807 -0.138,-0.532 -0.302,-1.055 -0.489,-1.565 V 10.949 C 38.798,10.439 38.586,9.938 38.351,9.453 37.998,8.723 37.594,8.026 37.144,7.361 36.544,6.474 35.861,5.649 35.106,4.895 34.919,4.707 34.725,4.521 34.527,4.341 34.329,4.161 34.127,3.988 33.921,3.818 32.892,2.969 31.757,2.239 30.541,1.652 30.298,1.535 30.052,1.422 29.802,1.316 29.303,1.105 28.792,0.917 28.27,0.755 27.031,0.37 25.318,-0.071 22.903,0.011 Z"
         style="fill:#13a7af;fill-opacity:1;stroke-width:1;stroke-dasharray:none"
         class="fills"
         id="fills-487ad5c0-f0a5-8021-8005-f8beb3a9f094" />
    </g>
    <g
       id="shape-487ad5c0-f0a5-8021-8005-f8beb3aa7afc">
      <path
         d="m 43.128,11.881 v 7.654 l 2.013,-0.001 h 3.285 l -5.298,0.001 v 0.001 c 0,0.117 0.006,0.233 0.009,0.35 0.015,0.754 0.081,1.507 0.198,2.252 0.031,0.2 0.067,0.398 0.106,0.595 0.144,0.727 0.337,1.444 0.576,2.146 0.082,0.239 0.169,0.475 0.261,0.71 0.259,0.662 0.561,1.308 0.903,1.932 0.126,0.23 0.258,0.457 0.395,0.68 0.35,0.57 0.735,1.119 1.152,1.643 0.202,0.255 0.411,0.506 0.627,0.749 0.386,0.427 0.793,0.833 1.221,1.218 0.061,0.062 0.123,0.123 0.185,0.184 0.214,0.19 0.432,0.374 0.656,0.553 0.289,0.216 0.584,0.423 0.886,0.62 0.308,0.23 0.623,0.451 0.946,0.66 0.147,0.089 0.297,0.173 0.447,0.258 0.738,0.414 1.505,0.771 2.297,1.069 0.004,0.002 0.009,0.004 0.013,0.005 0.068,0.026 0.136,0.05 0.205,0.075 0.859,0.306 1.741,0.542 2.639,0.705 0.042,0.008 0.084,0.015 0.126,0.023 0.938,0.163 1.888,0.246 2.84,0.248 0.316,-10e-4 0.632,-0.01 0.947,-0.029 0.088,-0.005 0.176,-0.013 0.264,-0.02 0.225,-0.016 0.45,-0.036 0.674,-0.061 0.111,-0.013 0.221,-0.028 0.331,-0.042 0.197,-0.027 0.395,-0.057 0.591,-0.09 0.124,-0.022 0.249,-0.043 0.372,-0.067 0.169,-0.034 0.338,-0.07 0.505,-0.108 0.147,-0.034 0.294,-0.065 0.439,-0.102 0.084,-0.023 0.168,-0.046 0.251,-0.07 0.488,-0.133 0.968,-0.286 1.437,-0.462 1.335,-0.499 2.588,-1.167 3.738,-1.974 0.598,-0.42 1.169,-0.875 1.706,-1.367 3.334,-3.054 5.434,-7.435 5.434,-12.284 h -7.311 c 0,5.227 -4.148,9.372 -9.378,9.372 -5.23,0 -9.377,-4.145 -9.377,-9.372 v -0.001 -7.653 z m 26.066,0 v 7.653 h 2.012 3.286 2.013 l -10e-4,-7.653 z"
         style="fill:#e53733;fill-opacity:1"
         class="fills"
         id="fills-487ad5c0-f0a5-8021-8005-f8beb3aa7afc" />
    </g>
  </g>
</svg>
